<?xml version="1.0" encoding="UTF-8"?>
<svg xmlns="http://www.w3.org/2000/svg" xmlns:xlink="http://www.w3.org/1999/xlink" width="310pt" height="149pt" viewBox="0 0 310 149" version="1.1">
<defs>
<clipPath id="clip1">
  <path d="M 45.527344 126.25 L 68.027344 126.25 L 68.027344 148.75 L 45.527344 148.75 Z M 45.527344 126.25 "/>
</clipPath>
<clipPath id="clip2">
  <path d="M 0.527344 126.25 L 23.027344 126.25 L 23.027344 148.75 L 0.527344 148.75 Z M 0.527344 126.25 "/>
</clipPath>
<clipPath id="clip3">
  <path d="M 90.527344 126.25 L 113.027344 126.25 L 113.027344 148.75 L 90.527344 148.75 Z M 90.527344 126.25 "/>
</clipPath>
<clipPath id="clip4">
  <path d="M 68.027344 126.25 L 90.527344 126.25 L 90.527344 148.75 L 68.027344 148.75 Z M 68.027344 126.25 "/>
</clipPath>
<clipPath id="clip5">
  <path d="M 23.027344 126.25 L 45.527344 126.25 L 45.527344 148.75 L 23.027344 148.75 Z M 23.027344 126.25 "/>
</clipPath>
<clipPath id="clip6">
  <path d="M 90.527344 81.25 L 113.027344 81.25 L 113.027344 103.75 L 90.527344 103.75 Z M 90.527344 81.25 "/>
</clipPath>
<clipPath id="clip7">
  <path d="M 90.527344 103.75 L 113.027344 103.75 L 113.027344 126.25 L 90.527344 126.25 Z M 90.527344 103.75 "/>
</clipPath>
<clipPath id="clip8">
  <path d="M 90.527344 58.75 L 113.027344 58.75 L 113.027344 81.25 L 90.527344 81.25 Z M 90.527344 58.75 "/>
</clipPath>
<clipPath id="clip9">
  <path d="M 90.527344 36.25 L 113.027344 36.25 L 113.027344 58.75 L 90.527344 58.75 Z M 90.527344 36.25 "/>
</clipPath>
<clipPath id="clip10">
  <path d="M 0.527344 81.25 L 23.027344 81.25 L 23.027344 103.75 L 0.527344 103.75 Z M 0.527344 81.25 "/>
</clipPath>
<clipPath id="clip11">
  <path d="M 0.527344 103.75 L 23.027344 103.75 L 23.027344 126.25 L 0.527344 126.25 Z M 0.527344 103.75 "/>
</clipPath>
<clipPath id="clip12">
  <path d="M 23.027344 36.25 L 45.527344 36.25 L 45.527344 58.75 L 23.027344 58.75 Z M 23.027344 36.25 "/>
</clipPath>
<clipPath id="clip13">
  <path d="M 0.527344 58.75 L 23.027344 58.75 L 23.027344 81.25 L 0.527344 81.25 Z M 0.527344 58.75 "/>
</clipPath>
<clipPath id="clip14">
  <path d="M 0.527344 36.25 L 23.027344 36.25 L 23.027344 58.75 L 0.527344 58.75 Z M 0.527344 36.25 "/>
</clipPath>
<clipPath id="clip15">
  <path d="M 68.027344 36.25 L 90.527344 36.25 L 90.527344 58.75 L 68.027344 58.75 Z M 68.027344 36.25 "/>
</clipPath>
<clipPath id="clip16">
  <path d="M 45.527344 36.25 L 68.027344 36.25 L 68.027344 58.75 L 45.527344 58.75 Z M 45.527344 36.25 "/>
</clipPath>
</defs>
<g id="surface1">
<g clip-path="url(#clip1)" clip-rule="nonzero">
<path style=" stroke:none;fill-rule:nonzero;fill:rgb(100%,100%,100%);fill-opacity:1;" d="M 45.527344 148.75 L 68.027344 148.75 L 68.027344 126.25 L 45.527344 126.25 Z M 45.527344 148.75 "/>
<path style="fill:none;stroke-width:2;stroke-linecap:round;stroke-linejoin:round;stroke:rgb(0%,0%,0%);stroke-opacity:1;stroke-dasharray:1,4;stroke-miterlimit:10;" d="M 48.421875 236 L 66.421875 236 L 66.421875 254 L 48.421875 254 Z M 48.421875 236 " transform="matrix(1.25,0,0,1.25,-15,-168.75)"/>
</g>
<path style=" stroke:none;fill-rule:nonzero;fill:rgb(0%,0%,0%);fill-opacity:1;" d="M 54.117188 137.101562 C 54.117188 136.152344 54.214844 135.382812 54.410156 134.796875 C 54.605469 134.210938 54.890625 133.761719 55.269531 133.449219 C 55.660156 133.136719 56.148438 132.980469 56.734375 132.980469 C 57.175781 132.980469 57.5625 133.074219 57.886719 133.253906 C 58.210938 133.425781 58.480469 133.671875 58.6875 133.996094 C 58.894531 134.324219 59.058594 134.71875 59.175781 135.1875 C 59.304688 135.65625 59.371094 136.296875 59.371094 137.101562 C 59.371094 138.039062 59.273438 138.800781 59.078125 139.386719 C 58.882812 139.960938 58.589844 140.410156 58.199219 140.734375 C 57.820312 141.046875 57.332031 141.203125 56.734375 141.203125 C 55.964844 141.203125 55.359375 140.925781 54.917969 140.363281 C 54.382812 139.699219 54.117188 138.613281 54.117188 137.101562 Z M 55.132812 137.101562 C 55.132812 138.417969 55.28125 139.296875 55.582031 139.738281 C 55.894531 140.167969 56.277344 140.382812 56.734375 140.382812 C 57.191406 140.382812 57.574219 140.167969 57.886719 139.738281 C 58.199219 139.296875 58.355469 138.417969 58.355469 137.101562 C 58.355469 135.773438 58.199219 134.894531 57.886719 134.464844 C 57.574219 134.023438 57.191406 133.800781 56.734375 133.800781 C 56.277344 133.800781 55.914062 133.992188 55.640625 134.367188 C 55.300781 134.863281 55.132812 135.773438 55.132812 137.101562 Z M 55.132812 137.101562 "/>
<g clip-path="url(#clip2)" clip-rule="nonzero">
<path style=" stroke:none;fill-rule:nonzero;fill:rgb(69.803922%,85.098039%,100%);fill-opacity:1;" d="M 0.527344 148.75 L 23.027344 148.75 L 23.027344 126.25 L 0.527344 126.25 Z M 0.527344 148.75 "/>
<path style="fill:none;stroke-width:2;stroke-linecap:round;stroke-linejoin:round;stroke:rgb(0%,0%,0%);stroke-opacity:1;stroke-dasharray:1,4;stroke-miterlimit:10;" d="M 12.421875 236 L 30.421875 236 L 30.421875 254 L 12.421875 254 Z M 12.421875 236 " transform="matrix(1.25,0,0,1.25,-15,-168.75)"/>
</g>
<path style=" stroke:none;fill-rule:nonzero;fill:rgb(0%,0%,0%);fill-opacity:1;" d="M 9.117188 137.101562 C 9.117188 136.152344 9.214844 135.382812 9.410156 134.796875 C 9.605469 134.210938 9.890625 133.761719 10.269531 133.449219 C 10.660156 133.136719 11.148438 132.980469 11.734375 132.980469 C 12.175781 132.980469 12.5625 133.074219 12.886719 133.253906 C 13.210938 133.425781 13.480469 133.671875 13.6875 133.996094 C 13.894531 134.324219 14.058594 134.71875 14.175781 135.1875 C 14.304688 135.65625 14.371094 136.296875 14.371094 137.101562 C 14.371094 138.039062 14.273438 138.800781 14.078125 139.386719 C 13.882812 139.960938 13.589844 140.410156 13.199219 140.734375 C 12.820312 141.046875 12.332031 141.203125 11.734375 141.203125 C 10.964844 141.203125 10.359375 140.925781 9.917969 140.363281 C 9.382812 139.699219 9.117188 138.613281 9.117188 137.101562 Z M 10.132812 137.101562 C 10.132812 138.417969 10.28125 139.296875 10.582031 139.738281 C 10.894531 140.167969 11.277344 140.382812 11.734375 140.382812 C 12.191406 140.382812 12.574219 140.167969 12.886719 139.738281 C 13.199219 139.296875 13.355469 138.417969 13.355469 137.101562 C 13.355469 135.773438 13.199219 134.894531 12.886719 134.464844 C 12.574219 134.023438 12.191406 133.800781 11.734375 133.800781 C 11.277344 133.800781 10.914062 133.992188 10.640625 134.367188 C 10.300781 134.863281 10.132812 135.773438 10.132812 137.101562 Z M 10.132812 137.101562 "/>
<g clip-path="url(#clip3)" clip-rule="nonzero">
<path style=" stroke:none;fill-rule:nonzero;fill:rgb(100%,100%,100%);fill-opacity:1;" d="M 90.527344 148.75 L 113.027344 148.75 L 113.027344 126.25 L 90.527344 126.25 Z M 90.527344 148.75 "/>
<path style="fill:none;stroke-width:2;stroke-linecap:round;stroke-linejoin:round;stroke:rgb(0%,0%,0%);stroke-opacity:1;stroke-dasharray:1,4;stroke-miterlimit:10;" d="M 84.421875 236 L 102.421875 236 L 102.421875 254 L 84.421875 254 Z M 84.421875 236 " transform="matrix(1.25,0,0,1.25,-15,-168.75)"/>
</g>
<path style=" stroke:none;fill-rule:nonzero;fill:rgb(0%,0%,0%);fill-opacity:1;" d="M 99.117188 137.101562 C 99.117188 136.152344 99.214844 135.382812 99.410156 134.796875 C 99.605469 134.210938 99.890625 133.761719 100.269531 133.449219 C 100.660156 133.136719 101.148438 132.980469 101.734375 132.980469 C 102.175781 132.980469 102.5625 133.074219 102.886719 133.253906 C 103.210938 133.425781 103.480469 133.671875 103.6875 133.996094 C 103.894531 134.324219 104.058594 134.71875 104.175781 135.1875 C 104.304688 135.65625 104.371094 136.296875 104.371094 137.101562 C 104.371094 138.039062 104.273438 138.800781 104.078125 139.386719 C 103.882812 139.960938 103.589844 140.410156 103.199219 140.734375 C 102.820312 141.046875 102.332031 141.203125 101.734375 141.203125 C 100.964844 141.203125 100.359375 140.925781 99.917969 140.363281 C 99.382812 139.699219 99.117188 138.613281 99.117188 137.101562 Z M 100.132812 137.101562 C 100.132812 138.417969 100.28125 139.296875 100.582031 139.738281 C 100.894531 140.167969 101.277344 140.382812 101.734375 140.382812 C 102.191406 140.382812 102.574219 140.167969 102.886719 139.738281 C 103.199219 139.296875 103.355469 138.417969 103.355469 137.101562 C 103.355469 135.773438 103.199219 134.894531 102.886719 134.464844 C 102.574219 134.023438 102.191406 133.800781 101.734375 133.800781 C 101.277344 133.800781 100.914062 133.992188 100.640625 134.367188 C 100.300781 134.863281 100.132812 135.773438 100.132812 137.101562 Z M 100.132812 137.101562 "/>
<g clip-path="url(#clip4)" clip-rule="nonzero">
<path style=" stroke:none;fill-rule:nonzero;fill:rgb(100%,100%,100%);fill-opacity:1;" d="M 68.027344 148.75 L 90.527344 148.75 L 90.527344 126.25 L 68.027344 126.25 Z M 68.027344 148.75 "/>
<path style="fill:none;stroke-width:2;stroke-linecap:round;stroke-linejoin:round;stroke:rgb(0%,0%,0%);stroke-opacity:1;stroke-dasharray:1,4;stroke-miterlimit:10;" d="M 66.421875 236 L 84.421875 236 L 84.421875 254 L 66.421875 254 Z M 66.421875 236 " transform="matrix(1.25,0,0,1.25,-15,-168.75)"/>
</g>
<path style=" stroke:none;fill-rule:nonzero;fill:rgb(0%,0%,0%);fill-opacity:1;" d="M 76.617188 137.101562 C 76.617188 136.152344 76.714844 135.382812 76.910156 134.796875 C 77.105469 134.210938 77.390625 133.761719 77.769531 133.449219 C 78.160156 133.136719 78.648438 132.980469 79.234375 132.980469 C 79.675781 132.980469 80.0625 133.074219 80.386719 133.253906 C 80.710938 133.425781 80.980469 133.671875 81.1875 133.996094 C 81.394531 134.324219 81.558594 134.71875 81.675781 135.1875 C 81.804688 135.65625 81.871094 136.296875 81.871094 137.101562 C 81.871094 138.039062 81.773438 138.800781 81.578125 139.386719 C 81.382812 139.960938 81.089844 140.410156 80.699219 140.734375 C 80.320312 141.046875 79.832031 141.203125 79.234375 141.203125 C 78.464844 141.203125 77.859375 140.925781 77.417969 140.363281 C 76.882812 139.699219 76.617188 138.613281 76.617188 137.101562 Z M 77.632812 137.101562 C 77.632812 138.417969 77.78125 139.296875 78.082031 139.738281 C 78.394531 140.167969 78.777344 140.382812 79.234375 140.382812 C 79.691406 140.382812 80.074219 140.167969 80.386719 139.738281 C 80.699219 139.296875 80.855469 138.417969 80.855469 137.101562 C 80.855469 135.773438 80.699219 134.894531 80.386719 134.464844 C 80.074219 134.023438 79.691406 133.800781 79.234375 133.800781 C 78.777344 133.800781 78.414062 133.992188 78.140625 134.367188 C 77.800781 134.863281 77.632812 135.773438 77.632812 137.101562 Z M 77.632812 137.101562 "/>
<g clip-path="url(#clip5)" clip-rule="nonzero">
<path style=" stroke:none;fill-rule:nonzero;fill:rgb(69.803922%,85.098039%,100%);fill-opacity:1;" d="M 23.027344 148.75 L 45.527344 148.75 L 45.527344 126.25 L 23.027344 126.25 Z M 23.027344 148.75 "/>
<path style="fill:none;stroke-width:2;stroke-linecap:round;stroke-linejoin:round;stroke:rgb(0%,0%,0%);stroke-opacity:1;stroke-dasharray:1,4;stroke-miterlimit:10;" d="M 30.421875 236 L 48.421875 236 L 48.421875 254 L 30.421875 254 Z M 30.421875 236 " transform="matrix(1.25,0,0,1.25,-15,-168.75)"/>
</g>
<path style=" stroke:none;fill-rule:nonzero;fill:rgb(0%,0%,0%);fill-opacity:1;" d="M 31.617188 137.101562 C 31.617188 136.152344 31.714844 135.382812 31.910156 134.796875 C 32.105469 134.210938 32.390625 133.761719 32.769531 133.449219 C 33.160156 133.136719 33.648438 132.980469 34.234375 132.980469 C 34.675781 132.980469 35.0625 133.074219 35.386719 133.253906 C 35.710938 133.425781 35.980469 133.671875 36.1875 133.996094 C 36.394531 134.324219 36.558594 134.71875 36.675781 135.1875 C 36.804688 135.65625 36.871094 136.296875 36.871094 137.101562 C 36.871094 138.039062 36.773438 138.800781 36.578125 139.386719 C 36.382812 139.960938 36.089844 140.410156 35.699219 140.734375 C 35.320312 141.046875 34.832031 141.203125 34.234375 141.203125 C 33.464844 141.203125 32.859375 140.925781 32.417969 140.363281 C 31.882812 139.699219 31.617188 138.613281 31.617188 137.101562 Z M 32.632812 137.101562 C 32.632812 138.417969 32.78125 139.296875 33.082031 139.738281 C 33.394531 140.167969 33.777344 140.382812 34.234375 140.382812 C 34.691406 140.382812 35.074219 140.167969 35.386719 139.738281 C 35.699219 139.296875 35.855469 138.417969 35.855469 137.101562 C 35.855469 135.773438 35.699219 134.894531 35.386719 134.464844 C 35.074219 134.023438 34.691406 133.800781 34.234375 133.800781 C 33.777344 133.800781 33.414062 133.992188 33.140625 134.367188 C 32.800781 134.863281 32.632812 135.773438 32.632812 137.101562 Z M 32.632812 137.101562 "/>
<g clip-path="url(#clip6)" clip-rule="nonzero">
<path style=" stroke:none;fill-rule:nonzero;fill:rgb(100%,100%,100%);fill-opacity:1;" d="M 90.527344 103.75 L 113.027344 103.75 L 113.027344 81.25 L 90.527344 81.25 Z M 90.527344 103.75 "/>
<path style="fill:none;stroke-width:2;stroke-linecap:round;stroke-linejoin:round;stroke:rgb(0%,0%,0%);stroke-opacity:1;stroke-dasharray:1,4;stroke-miterlimit:10;" d="M 84.421875 200 L 102.421875 200 L 102.421875 218 L 84.421875 218 Z M 84.421875 200 " transform="matrix(1.25,0,0,1.25,-15,-168.75)"/>
</g>
<path style=" stroke:none;fill-rule:nonzero;fill:rgb(0%,0%,0%);fill-opacity:1;" d="M 99.117188 92.101562 C 99.117188 91.152344 99.214844 90.382812 99.410156 89.796875 C 99.605469 89.210938 99.890625 88.761719 100.269531 88.449219 C 100.660156 88.136719 101.148438 87.980469 101.734375 87.980469 C 102.175781 87.980469 102.5625 88.074219 102.886719 88.253906 C 103.210938 88.425781 103.480469 88.671875 103.6875 88.996094 C 103.894531 89.324219 104.058594 89.71875 104.175781 90.1875 C 104.304688 90.65625 104.371094 91.296875 104.371094 92.101562 C 104.371094 93.039062 104.273438 93.800781 104.078125 94.386719 C 103.882812 94.960938 103.589844 95.410156 103.199219 95.734375 C 102.820312 96.046875 102.332031 96.203125 101.734375 96.203125 C 100.964844 96.203125 100.359375 95.925781 99.917969 95.363281 C 99.382812 94.699219 99.117188 93.613281 99.117188 92.101562 Z M 100.132812 92.101562 C 100.132812 93.417969 100.28125 94.296875 100.582031 94.738281 C 100.894531 95.167969 101.277344 95.382812 101.734375 95.382812 C 102.191406 95.382812 102.574219 95.167969 102.886719 94.738281 C 103.199219 94.296875 103.355469 93.417969 103.355469 92.101562 C 103.355469 90.773438 103.199219 89.894531 102.886719 89.464844 C 102.574219 89.023438 102.191406 88.800781 101.734375 88.800781 C 101.277344 88.800781 100.914062 88.992188 100.640625 89.367188 C 100.300781 89.863281 100.132812 90.773438 100.132812 92.101562 Z M 100.132812 92.101562 "/>
<g clip-path="url(#clip7)" clip-rule="nonzero">
<path style=" stroke:none;fill-rule:nonzero;fill:rgb(100%,100%,100%);fill-opacity:1;" d="M 90.527344 126.25 L 113.027344 126.25 L 113.027344 103.75 L 90.527344 103.75 Z M 90.527344 126.25 "/>
<path style="fill:none;stroke-width:2;stroke-linecap:round;stroke-linejoin:round;stroke:rgb(0%,0%,0%);stroke-opacity:1;stroke-dasharray:1,4;stroke-miterlimit:10;" d="M 84.421875 218 L 102.421875 218 L 102.421875 236 L 84.421875 236 Z M 84.421875 218 " transform="matrix(1.25,0,0,1.25,-15,-168.75)"/>
</g>
<path style=" stroke:none;fill-rule:nonzero;fill:rgb(0%,0%,0%);fill-opacity:1;" d="M 99.117188 114.601562 C 99.117188 113.652344 99.214844 112.882812 99.410156 112.296875 C 99.605469 111.710938 99.890625 111.261719 100.269531 110.949219 C 100.660156 110.636719 101.148438 110.480469 101.734375 110.480469 C 102.175781 110.480469 102.5625 110.574219 102.886719 110.753906 C 103.210938 110.925781 103.480469 111.171875 103.6875 111.496094 C 103.894531 111.824219 104.058594 112.21875 104.175781 112.6875 C 104.304688 113.15625 104.371094 113.796875 104.371094 114.601562 C 104.371094 115.539062 104.273438 116.300781 104.078125 116.886719 C 103.882812 117.460938 103.589844 117.910156 103.199219 118.234375 C 102.820312 118.546875 102.332031 118.703125 101.734375 118.703125 C 100.964844 118.703125 100.359375 118.425781 99.917969 117.863281 C 99.382812 117.199219 99.117188 116.113281 99.117188 114.601562 Z M 100.132812 114.601562 C 100.132812 115.917969 100.28125 116.796875 100.582031 117.238281 C 100.894531 117.667969 101.277344 117.882812 101.734375 117.882812 C 102.191406 117.882812 102.574219 117.667969 102.886719 117.238281 C 103.199219 116.796875 103.355469 115.917969 103.355469 114.601562 C 103.355469 113.273438 103.199219 112.394531 102.886719 111.964844 C 102.574219 111.523438 102.191406 111.300781 101.734375 111.300781 C 101.277344 111.300781 100.914062 111.492188 100.640625 111.867188 C 100.300781 112.363281 100.132812 113.273438 100.132812 114.601562 Z M 100.132812 114.601562 "/>
<g clip-path="url(#clip8)" clip-rule="nonzero">
<path style=" stroke:none;fill-rule:nonzero;fill:rgb(100%,100%,100%);fill-opacity:1;" d="M 90.527344 81.25 L 113.027344 81.25 L 113.027344 58.75 L 90.527344 58.75 Z M 90.527344 81.25 "/>
<path style="fill:none;stroke-width:2;stroke-linecap:round;stroke-linejoin:round;stroke:rgb(0%,0%,0%);stroke-opacity:1;stroke-dasharray:1,4;stroke-miterlimit:10;" d="M 84.421875 182 L 102.421875 182 L 102.421875 200 L 84.421875 200 Z M 84.421875 182 " transform="matrix(1.25,0,0,1.25,-15,-168.75)"/>
</g>
<path style=" stroke:none;fill-rule:nonzero;fill:rgb(0%,0%,0%);fill-opacity:1;" d="M 99.117188 69.601562 C 99.117188 68.652344 99.214844 67.882812 99.410156 67.296875 C 99.605469 66.710938 99.890625 66.261719 100.269531 65.949219 C 100.660156 65.636719 101.148438 65.480469 101.734375 65.480469 C 102.175781 65.480469 102.5625 65.574219 102.886719 65.753906 C 103.210938 65.925781 103.480469 66.171875 103.6875 66.496094 C 103.894531 66.824219 104.058594 67.21875 104.175781 67.6875 C 104.304688 68.15625 104.371094 68.796875 104.371094 69.601562 C 104.371094 70.539062 104.273438 71.300781 104.078125 71.886719 C 103.882812 72.460938 103.589844 72.910156 103.199219 73.234375 C 102.820312 73.546875 102.332031 73.703125 101.734375 73.703125 C 100.964844 73.703125 100.359375 73.425781 99.917969 72.863281 C 99.382812 72.199219 99.117188 71.113281 99.117188 69.601562 Z M 100.132812 69.601562 C 100.132812 70.917969 100.28125 71.796875 100.582031 72.238281 C 100.894531 72.667969 101.277344 72.882812 101.734375 72.882812 C 102.191406 72.882812 102.574219 72.667969 102.886719 72.238281 C 103.199219 71.796875 103.355469 70.917969 103.355469 69.601562 C 103.355469 68.273438 103.199219 67.394531 102.886719 66.964844 C 102.574219 66.523438 102.191406 66.300781 101.734375 66.300781 C 101.277344 66.300781 100.914062 66.492188 100.640625 66.867188 C 100.300781 67.363281 100.132812 68.273438 100.132812 69.601562 Z M 100.132812 69.601562 "/>
<g clip-path="url(#clip9)" clip-rule="nonzero">
<path style=" stroke:none;fill-rule:nonzero;fill:rgb(100%,100%,100%);fill-opacity:1;" d="M 90.527344 58.75 L 113.027344 58.75 L 113.027344 36.25 L 90.527344 36.25 Z M 90.527344 58.75 "/>
<path style="fill:none;stroke-width:2;stroke-linecap:round;stroke-linejoin:round;stroke:rgb(0%,0%,0%);stroke-opacity:1;stroke-dasharray:1,4;stroke-miterlimit:10;" d="M 84.421875 164 L 102.421875 164 L 102.421875 182 L 84.421875 182 Z M 84.421875 164 " transform="matrix(1.25,0,0,1.25,-15,-168.75)"/>
</g>
<path style=" stroke:none;fill-rule:nonzero;fill:rgb(0%,0%,0%);fill-opacity:1;" d="M 99.117188 47.101562 C 99.117188 46.152344 99.214844 45.382812 99.410156 44.796875 C 99.605469 44.210938 99.890625 43.761719 100.269531 43.449219 C 100.660156 43.136719 101.148438 42.980469 101.734375 42.980469 C 102.175781 42.980469 102.5625 43.074219 102.886719 43.253906 C 103.210938 43.425781 103.480469 43.671875 103.6875 43.996094 C 103.894531 44.324219 104.058594 44.71875 104.175781 45.1875 C 104.304688 45.65625 104.371094 46.296875 104.371094 47.101562 C 104.371094 48.039062 104.273438 48.800781 104.078125 49.386719 C 103.882812 49.960938 103.589844 50.410156 103.199219 50.734375 C 102.820312 51.046875 102.332031 51.203125 101.734375 51.203125 C 100.964844 51.203125 100.359375 50.925781 99.917969 50.363281 C 99.382812 49.699219 99.117188 48.613281 99.117188 47.101562 Z M 100.132812 47.101562 C 100.132812 48.417969 100.28125 49.296875 100.582031 49.738281 C 100.894531 50.167969 101.277344 50.382812 101.734375 50.382812 C 102.191406 50.382812 102.574219 50.167969 102.886719 49.738281 C 103.199219 49.296875 103.355469 48.417969 103.355469 47.101562 C 103.355469 45.773438 103.199219 44.894531 102.886719 44.464844 C 102.574219 44.023438 102.191406 43.800781 101.734375 43.800781 C 101.277344 43.800781 100.914062 43.992188 100.640625 44.367188 C 100.300781 44.863281 100.132812 45.773438 100.132812 47.101562 Z M 100.132812 47.101562 "/>
<g clip-path="url(#clip10)" clip-rule="nonzero">
<path style=" stroke:none;fill-rule:nonzero;fill:rgb(100%,100%,100%);fill-opacity:1;" d="M 0.527344 103.75 L 23.027344 103.75 L 23.027344 81.25 L 0.527344 81.25 Z M 0.527344 103.75 "/>
<path style="fill:none;stroke-width:2;stroke-linecap:round;stroke-linejoin:round;stroke:rgb(0%,0%,0%);stroke-opacity:1;stroke-dasharray:1,4;stroke-miterlimit:10;" d="M 12.421875 200 L 30.421875 200 L 30.421875 218 L 12.421875 218 Z M 12.421875 200 " transform="matrix(1.25,0,0,1.25,-15,-168.75)"/>
</g>
<path style=" stroke:none;fill-rule:nonzero;fill:rgb(0%,0%,0%);fill-opacity:1;" d="M 9.117188 92.101562 C 9.117188 91.152344 9.214844 90.382812 9.410156 89.796875 C 9.605469 89.210938 9.890625 88.761719 10.269531 88.449219 C 10.660156 88.136719 11.148438 87.980469 11.734375 87.980469 C 12.175781 87.980469 12.5625 88.074219 12.886719 88.253906 C 13.210938 88.425781 13.480469 88.671875 13.6875 88.996094 C 13.894531 89.324219 14.058594 89.71875 14.175781 90.1875 C 14.304688 90.65625 14.371094 91.296875 14.371094 92.101562 C 14.371094 93.039062 14.273438 93.800781 14.078125 94.386719 C 13.882812 94.960938 13.589844 95.410156 13.199219 95.734375 C 12.820312 96.046875 12.332031 96.203125 11.734375 96.203125 C 10.964844 96.203125 10.359375 95.925781 9.917969 95.363281 C 9.382812 94.699219 9.117188 93.613281 9.117188 92.101562 Z M 10.132812 92.101562 C 10.132812 93.417969 10.28125 94.296875 10.582031 94.738281 C 10.894531 95.167969 11.277344 95.382812 11.734375 95.382812 C 12.191406 95.382812 12.574219 95.167969 12.886719 94.738281 C 13.199219 94.296875 13.355469 93.417969 13.355469 92.101562 C 13.355469 90.773438 13.199219 89.894531 12.886719 89.464844 C 12.574219 89.023438 12.191406 88.800781 11.734375 88.800781 C 11.277344 88.800781 10.914062 88.992188 10.640625 89.367188 C 10.300781 89.863281 10.132812 90.773438 10.132812 92.101562 Z M 10.132812 92.101562 "/>
<path style=" stroke:none;fill-rule:nonzero;fill:rgb(69.803922%,85.098039%,100%);fill-opacity:1;" d="M 45.527344 81.25 L 68.027344 81.25 L 68.027344 58.75 L 45.527344 58.75 Z M 45.527344 81.25 "/>
<path style="fill:none;stroke-width:1;stroke-linecap:round;stroke-linejoin:round;stroke:rgb(0%,0%,0%);stroke-opacity:1;stroke-miterlimit:10;" d="M 48.421875 182 L 66.421875 182 L 66.421875 200 L 48.421875 200 Z M 48.421875 182 " transform="matrix(1.25,0,0,1.25,-15,-168.75)"/>
<path style=" stroke:none;fill-rule:nonzero;fill:rgb(0%,0%,0%);fill-opacity:1;" d="M 57.847656 73.566406 L 56.851562 73.566406 L 56.851562 67.257812 C 56.617188 67.492188 56.304688 67.726562 55.914062 67.960938 C 55.523438 68.183594 55.179688 68.347656 54.878906 68.449219 L 54.878906 67.492188 C 55.425781 67.246094 55.90625 66.941406 56.324219 66.574219 C 56.742188 66.199219 57.035156 65.832031 57.203125 65.480469 L 57.847656 65.480469 Z M 57.847656 73.566406 "/>
<path style=" stroke:none;fill-rule:nonzero;fill:rgb(100%,100%,100%);fill-opacity:1;" d="M 23.027344 81.25 L 45.527344 81.25 L 45.527344 58.75 L 23.027344 58.75 Z M 23.027344 81.25 "/>
<path style="fill:none;stroke-width:1;stroke-linecap:round;stroke-linejoin:round;stroke:rgb(0%,0%,0%);stroke-opacity:1;stroke-miterlimit:10;" d="M 30.421875 182 L 48.421875 182 L 48.421875 200 L 30.421875 200 Z M 30.421875 182 " transform="matrix(1.25,0,0,1.25,-15,-168.75)"/>
<path style=" stroke:none;fill-rule:nonzero;fill:rgb(0%,0%,0%);fill-opacity:1;" d="M 31.617188 69.601562 C 31.617188 68.652344 31.714844 67.882812 31.910156 67.296875 C 32.105469 66.710938 32.390625 66.261719 32.769531 65.949219 C 33.160156 65.636719 33.648438 65.480469 34.234375 65.480469 C 34.675781 65.480469 35.0625 65.574219 35.386719 65.753906 C 35.710938 65.925781 35.980469 66.171875 36.1875 66.496094 C 36.394531 66.824219 36.558594 67.21875 36.675781 67.6875 C 36.804688 68.15625 36.871094 68.796875 36.871094 69.601562 C 36.871094 70.539062 36.773438 71.300781 36.578125 71.886719 C 36.382812 72.460938 36.089844 72.910156 35.699219 73.234375 C 35.320312 73.546875 34.832031 73.703125 34.234375 73.703125 C 33.464844 73.703125 32.859375 73.425781 32.417969 72.863281 C 31.882812 72.199219 31.617188 71.113281 31.617188 69.601562 Z M 32.632812 69.601562 C 32.632812 70.917969 32.78125 71.796875 33.082031 72.238281 C 33.394531 72.667969 33.777344 72.882812 34.234375 72.882812 C 34.691406 72.882812 35.074219 72.667969 35.386719 72.238281 C 35.699219 71.796875 35.855469 70.917969 35.855469 69.601562 C 35.855469 68.273438 35.699219 67.394531 35.386719 66.964844 C 35.074219 66.523438 34.691406 66.300781 34.234375 66.300781 C 33.777344 66.300781 33.414062 66.492188 33.140625 66.867188 C 32.800781 67.363281 32.632812 68.273438 32.632812 69.601562 Z M 32.632812 69.601562 "/>
<g clip-path="url(#clip11)" clip-rule="nonzero">
<path style=" stroke:none;fill-rule:nonzero;fill:rgb(69.803922%,85.098039%,100%);fill-opacity:1;" d="M 0.527344 126.25 L 23.027344 126.25 L 23.027344 103.75 L 0.527344 103.75 Z M 0.527344 126.25 "/>
<path style="fill:none;stroke-width:2;stroke-linecap:round;stroke-linejoin:round;stroke:rgb(0%,0%,0%);stroke-opacity:1;stroke-dasharray:1,4;stroke-miterlimit:10;" d="M 12.421875 218 L 30.421875 218 L 30.421875 236 L 12.421875 236 Z M 12.421875 218 " transform="matrix(1.25,0,0,1.25,-15,-168.75)"/>
</g>
<path style=" stroke:none;fill-rule:nonzero;fill:rgb(0%,0%,0%);fill-opacity:1;" d="M 9.117188 114.601562 C 9.117188 113.652344 9.214844 112.882812 9.410156 112.296875 C 9.605469 111.710938 9.890625 111.261719 10.269531 110.949219 C 10.660156 110.636719 11.148438 110.480469 11.734375 110.480469 C 12.175781 110.480469 12.5625 110.574219 12.886719 110.753906 C 13.210938 110.925781 13.480469 111.171875 13.6875 111.496094 C 13.894531 111.824219 14.058594 112.21875 14.175781 112.6875 C 14.304688 113.15625 14.371094 113.796875 14.371094 114.601562 C 14.371094 115.539062 14.273438 116.300781 14.078125 116.886719 C 13.882812 117.460938 13.589844 117.910156 13.199219 118.234375 C 12.820312 118.546875 12.332031 118.703125 11.734375 118.703125 C 10.964844 118.703125 10.359375 118.425781 9.917969 117.863281 C 9.382812 117.199219 9.117188 116.113281 9.117188 114.601562 Z M 10.132812 114.601562 C 10.132812 115.917969 10.28125 116.796875 10.582031 117.238281 C 10.894531 117.667969 11.277344 117.882812 11.734375 117.882812 C 12.191406 117.882812 12.574219 117.667969 12.886719 117.238281 C 13.199219 116.796875 13.355469 115.917969 13.355469 114.601562 C 13.355469 113.273438 13.199219 112.394531 12.886719 111.964844 C 12.574219 111.523438 12.191406 111.300781 11.734375 111.300781 C 11.277344 111.300781 10.914062 111.492188 10.640625 111.867188 C 10.300781 112.363281 10.132812 113.273438 10.132812 114.601562 Z M 10.132812 114.601562 "/>
<g clip-path="url(#clip12)" clip-rule="nonzero">
<path style=" stroke:none;fill-rule:nonzero;fill:rgb(100%,100%,100%);fill-opacity:1;" d="M 23.027344 58.75 L 45.527344 58.75 L 45.527344 36.25 L 23.027344 36.25 Z M 23.027344 58.75 "/>
<path style="fill:none;stroke-width:2;stroke-linecap:round;stroke-linejoin:round;stroke:rgb(0%,0%,0%);stroke-opacity:1;stroke-dasharray:1,4;stroke-miterlimit:10;" d="M 30.421875 164 L 48.421875 164 L 48.421875 182 L 30.421875 182 Z M 30.421875 164 " transform="matrix(1.25,0,0,1.25,-15,-168.75)"/>
</g>
<path style=" stroke:none;fill-rule:nonzero;fill:rgb(0%,0%,0%);fill-opacity:1;" d="M 31.617188 47.101562 C 31.617188 46.152344 31.714844 45.382812 31.910156 44.796875 C 32.105469 44.210938 32.390625 43.761719 32.769531 43.449219 C 33.160156 43.136719 33.648438 42.980469 34.234375 42.980469 C 34.675781 42.980469 35.0625 43.074219 35.386719 43.253906 C 35.710938 43.425781 35.980469 43.671875 36.1875 43.996094 C 36.394531 44.324219 36.558594 44.71875 36.675781 45.1875 C 36.804688 45.65625 36.871094 46.296875 36.871094 47.101562 C 36.871094 48.039062 36.773438 48.800781 36.578125 49.386719 C 36.382812 49.960938 36.089844 50.410156 35.699219 50.734375 C 35.320312 51.046875 34.832031 51.203125 34.234375 51.203125 C 33.464844 51.203125 32.859375 50.925781 32.417969 50.363281 C 31.882812 49.699219 31.617188 48.613281 31.617188 47.101562 Z M 32.632812 47.101562 C 32.632812 48.417969 32.78125 49.296875 33.082031 49.738281 C 33.394531 50.167969 33.777344 50.382812 34.234375 50.382812 C 34.691406 50.382812 35.074219 50.167969 35.386719 49.738281 C 35.699219 49.296875 35.855469 48.417969 35.855469 47.101562 C 35.855469 45.773438 35.699219 44.894531 35.386719 44.464844 C 35.074219 44.023438 34.691406 43.800781 34.234375 43.800781 C 33.777344 43.800781 33.414062 43.992188 33.140625 44.367188 C 32.800781 44.863281 32.632812 45.773438 32.632812 47.101562 Z M 32.632812 47.101562 "/>
<path style=" stroke:none;fill-rule:nonzero;fill:rgb(100%,100%,100%);fill-opacity:1;" d="M 23.027344 103.75 L 45.527344 103.75 L 45.527344 81.25 L 23.027344 81.25 Z M 23.027344 103.75 "/>
<path style="fill:none;stroke-width:1;stroke-linecap:round;stroke-linejoin:round;stroke:rgb(0%,0%,0%);stroke-opacity:1;stroke-miterlimit:10;" d="M 30.421875 200 L 48.421875 200 L 48.421875 218 L 30.421875 218 Z M 30.421875 200 " transform="matrix(1.25,0,0,1.25,-15,-168.75)"/>
<path style=" stroke:none;fill-rule:nonzero;fill:rgb(0%,0%,0%);fill-opacity:1;" d="M 31.617188 93.9375 L 32.613281 93.800781 C 32.730469 94.363281 32.917969 94.765625 33.179688 95.011719 C 33.453125 95.261719 33.792969 95.382812 34.195312 95.382812 C 34.652344 95.382812 35.035156 95.226562 35.347656 94.914062 C 35.671875 94.589844 35.835938 94.1875 35.835938 93.703125 C 35.835938 93.25 35.6875 92.878906 35.386719 92.589844 C 35.101562 92.292969 34.730469 92.140625 34.273438 92.140625 C 34.078125 92.140625 33.84375 92.179688 33.570312 92.257812 L 33.6875 91.378906 C 33.753906 91.394531 33.804688 91.398438 33.84375 91.398438 C 34.261719 91.398438 34.636719 91.289062 34.976562 91.066406 C 35.316406 90.847656 35.484375 90.507812 35.484375 90.050781 C 35.484375 89.6875 35.359375 89.386719 35.113281 89.152344 C 34.867188 88.917969 34.546875 88.800781 34.15625 88.800781 C 33.777344 88.800781 33.460938 88.925781 33.199219 89.171875 C 32.953125 89.40625 32.789062 89.765625 32.710938 90.246094 L 31.714844 90.070312 C 31.84375 89.40625 32.117188 88.894531 32.535156 88.527344 C 32.964844 88.164062 33.5 87.980469 34.136719 87.980469 C 34.578125 87.980469 34.984375 88.078125 35.347656 88.273438 C 35.726562 88.457031 36.011719 88.710938 36.207031 89.035156 C 36.402344 89.363281 36.5 89.707031 36.5 90.070312 C 36.5 90.421875 36.402344 90.742188 36.207031 91.027344 C 36.023438 91.316406 35.75 91.542969 35.386719 91.710938 C 35.867188 91.816406 36.238281 92.042969 36.5 92.394531 C 36.761719 92.734375 36.890625 93.164062 36.890625 93.683594 C 36.890625 94.386719 36.628906 94.988281 36.109375 95.480469 C 35.601562 95.964844 34.957031 96.203125 34.175781 96.203125 C 33.472656 96.203125 32.886719 95.996094 32.417969 95.578125 C 31.949219 95.164062 31.683594 94.617188 31.617188 93.9375 Z M 31.617188 93.9375 "/>
<g clip-path="url(#clip13)" clip-rule="nonzero">
<path style=" stroke:none;fill-rule:nonzero;fill:rgb(100%,100%,100%);fill-opacity:1;" d="M 0.527344 81.25 L 23.027344 81.25 L 23.027344 58.75 L 0.527344 58.75 Z M 0.527344 81.25 "/>
<path style="fill:none;stroke-width:2;stroke-linecap:round;stroke-linejoin:round;stroke:rgb(0%,0%,0%);stroke-opacity:1;stroke-dasharray:1,4;stroke-miterlimit:10;" d="M 12.421875 182 L 30.421875 182 L 30.421875 200 L 12.421875 200 Z M 12.421875 182 " transform="matrix(1.25,0,0,1.25,-15,-168.75)"/>
</g>
<path style=" stroke:none;fill-rule:nonzero;fill:rgb(0%,0%,0%);fill-opacity:1;" d="M 9.117188 69.601562 C 9.117188 68.652344 9.214844 67.882812 9.410156 67.296875 C 9.605469 66.710938 9.890625 66.261719 10.269531 65.949219 C 10.660156 65.636719 11.148438 65.480469 11.734375 65.480469 C 12.175781 65.480469 12.5625 65.574219 12.886719 65.753906 C 13.210938 65.925781 13.480469 66.171875 13.6875 66.496094 C 13.894531 66.824219 14.058594 67.21875 14.175781 67.6875 C 14.304688 68.15625 14.371094 68.796875 14.371094 69.601562 C 14.371094 70.539062 14.273438 71.300781 14.078125 71.886719 C 13.882812 72.460938 13.589844 72.910156 13.199219 73.234375 C 12.820312 73.546875 12.332031 73.703125 11.734375 73.703125 C 10.964844 73.703125 10.359375 73.425781 9.917969 72.863281 C 9.382812 72.199219 9.117188 71.113281 9.117188 69.601562 Z M 10.132812 69.601562 C 10.132812 70.917969 10.28125 71.796875 10.582031 72.238281 C 10.894531 72.667969 11.277344 72.882812 11.734375 72.882812 C 12.191406 72.882812 12.574219 72.667969 12.886719 72.238281 C 13.199219 71.796875 13.355469 70.917969 13.355469 69.601562 C 13.355469 68.273438 13.199219 67.394531 12.886719 66.964844 C 12.574219 66.523438 12.191406 66.300781 11.734375 66.300781 C 11.277344 66.300781 10.914062 66.492188 10.640625 66.867188 C 10.300781 67.363281 10.132812 68.273438 10.132812 69.601562 Z M 10.132812 69.601562 "/>
<path style=" stroke:none;fill-rule:nonzero;fill:rgb(100%,100%,100%);fill-opacity:1;" d="M 68.027344 126.25 L 90.527344 126.25 L 90.527344 103.75 L 68.027344 103.75 Z M 68.027344 126.25 "/>
<path style="fill:none;stroke-width:1;stroke-linecap:round;stroke-linejoin:round;stroke:rgb(0%,0%,0%);stroke-opacity:1;stroke-miterlimit:10;" d="M 66.421875 218 L 84.421875 218 L 84.421875 236 L 66.421875 236 Z M 66.421875 218 " transform="matrix(1.25,0,0,1.25,-15,-168.75)"/>
<path style=" stroke:none;fill-rule:nonzero;fill:rgb(0%,0%,0%);fill-opacity:1;" d="M 78.140625 114.191406 C 77.722656 114.050781 77.417969 113.839844 77.222656 113.566406 C 77.027344 113.28125 76.929688 112.941406 76.929688 112.550781 C 76.929688 111.964844 77.136719 111.476562 77.554688 111.085938 C 77.984375 110.683594 78.542969 110.480469 79.234375 110.480469 C 79.9375 110.480469 80.503906 110.691406 80.933594 111.105469 C 81.363281 111.511719 81.578125 112.003906 81.578125 112.589844 C 81.578125 112.957031 81.480469 113.28125 81.285156 113.566406 C 81.089844 113.839844 80.789062 114.050781 80.386719 114.191406 C 80.882812 114.363281 81.257812 114.628906 81.519531 114.992188 C 81.78125 115.34375 81.910156 115.769531 81.910156 116.261719 C 81.910156 116.953125 81.664062 117.53125 81.167969 118 C 80.6875 118.46875 80.046875 118.703125 79.253906 118.703125 C 78.460938 118.703125 77.816406 118.46875 77.320312 118 C 76.839844 117.53125 76.597656 116.945312 76.597656 116.242188 C 76.597656 115.722656 76.726562 115.285156 76.988281 114.933594 C 77.261719 114.570312 77.644531 114.324219 78.140625 114.191406 Z M 77.945312 112.53125 C 77.945312 112.910156 78.0625 113.222656 78.296875 113.46875 C 78.542969 113.703125 78.863281 113.820312 79.253906 113.820312 C 79.644531 113.820312 79.957031 113.703125 80.191406 113.46875 C 80.4375 113.222656 80.5625 112.921875 80.5625 112.570312 C 80.5625 112.21875 80.4375 111.921875 80.191406 111.671875 C 79.945312 111.425781 79.632812 111.300781 79.253906 111.300781 C 78.875 111.300781 78.5625 111.425781 78.316406 111.671875 C 78.070312 111.90625 77.945312 112.195312 77.945312 112.53125 Z M 77.613281 116.242188 C 77.613281 116.53125 77.679688 116.804688 77.808594 117.0625 C 77.953125 117.324219 78.152344 117.527344 78.414062 117.667969 C 78.675781 117.8125 78.960938 117.882812 79.273438 117.882812 C 79.742188 117.882812 80.125 117.734375 80.425781 117.433594 C 80.738281 117.136719 80.894531 116.75 80.894531 116.28125 C 80.894531 115.800781 80.738281 115.402344 80.425781 115.089844 C 80.113281 114.777344 79.714844 114.621094 79.234375 114.621094 C 78.765625 114.621094 78.375 114.777344 78.0625 115.089844 C 77.761719 115.402344 77.613281 115.789062 77.613281 116.242188 Z M 77.613281 116.242188 "/>
<path style=" stroke:none;fill-rule:nonzero;fill:rgb(100%,100%,100%);fill-opacity:1;" d="M 68.027344 103.75 L 90.527344 103.75 L 90.527344 81.25 L 68.027344 81.25 Z M 68.027344 103.75 "/>
<path style="fill:none;stroke-width:1;stroke-linecap:round;stroke-linejoin:round;stroke:rgb(0%,0%,0%);stroke-opacity:1;stroke-miterlimit:10;" d="M 66.421875 200 L 84.421875 200 L 84.421875 218 L 66.421875 218 Z M 66.421875 200 " transform="matrix(1.25,0,0,1.25,-15,-168.75)"/>
<path style=" stroke:none;fill-rule:nonzero;fill:rgb(0%,0%,0%);fill-opacity:1;" d="M 76.617188 93.957031 L 77.652344 93.859375 C 77.730469 94.367188 77.90625 94.753906 78.179688 95.011719 C 78.464844 95.261719 78.804688 95.382812 79.195312 95.382812 C 79.675781 95.382812 80.082031 95.207031 80.40625 94.855469 C 80.746094 94.492188 80.914062 94.015625 80.914062 93.429688 C 80.914062 92.859375 80.75 92.410156 80.425781 92.082031 C 80.113281 91.757812 79.703125 91.59375 79.195312 91.59375 C 78.871094 91.59375 78.578125 91.671875 78.316406 91.828125 C 78.070312 91.972656 77.867188 92.15625 77.710938 92.375 L 76.792969 92.257812 L 77.574219 88.117188 L 81.578125 88.117188 L 81.578125 89.074219 L 78.355469 89.074219 L 77.925781 91.222656 C 78.40625 90.898438 78.914062 90.734375 79.449219 90.734375 C 80.152344 90.734375 80.746094 90.976562 81.226562 91.457031 C 81.707031 91.941406 81.949219 92.566406 81.949219 93.332031 C 81.949219 94.0625 81.742188 94.695312 81.324219 95.226562 C 80.804688 95.878906 80.09375 96.203125 79.195312 96.203125 C 78.464844 96.203125 77.867188 96.003906 77.398438 95.597656 C 76.941406 95.183594 76.683594 94.636719 76.617188 93.957031 Z M 76.617188 93.957031 "/>
<g clip-path="url(#clip14)" clip-rule="nonzero">
<path style=" stroke:none;fill-rule:nonzero;fill:rgb(100%,100%,100%);fill-opacity:1;" d="M 0.527344 58.75 L 23.027344 58.75 L 23.027344 36.25 L 0.527344 36.25 Z M 0.527344 58.75 "/>
<path style="fill:none;stroke-width:2;stroke-linecap:round;stroke-linejoin:round;stroke:rgb(0%,0%,0%);stroke-opacity:1;stroke-dasharray:1,4;stroke-miterlimit:10;" d="M 12.421875 164 L 30.421875 164 L 30.421875 182 L 12.421875 182 Z M 12.421875 164 " transform="matrix(1.25,0,0,1.25,-15,-168.75)"/>
</g>
<path style=" stroke:none;fill-rule:nonzero;fill:rgb(0%,0%,0%);fill-opacity:1;" d="M 9.117188 47.101562 C 9.117188 46.152344 9.214844 45.382812 9.410156 44.796875 C 9.605469 44.210938 9.890625 43.761719 10.269531 43.449219 C 10.660156 43.136719 11.148438 42.980469 11.734375 42.980469 C 12.175781 42.980469 12.5625 43.074219 12.886719 43.253906 C 13.210938 43.425781 13.480469 43.671875 13.6875 43.996094 C 13.894531 44.324219 14.058594 44.71875 14.175781 45.1875 C 14.304688 45.65625 14.371094 46.296875 14.371094 47.101562 C 14.371094 48.039062 14.273438 48.800781 14.078125 49.386719 C 13.882812 49.960938 13.589844 50.410156 13.199219 50.734375 C 12.820312 51.046875 12.332031 51.203125 11.734375 51.203125 C 10.964844 51.203125 10.359375 50.925781 9.917969 50.363281 C 9.382812 49.699219 9.117188 48.613281 9.117188 47.101562 Z M 10.132812 47.101562 C 10.132812 48.417969 10.28125 49.296875 10.582031 49.738281 C 10.894531 50.167969 11.277344 50.382812 11.734375 50.382812 C 12.191406 50.382812 12.574219 50.167969 12.886719 49.738281 C 13.199219 49.296875 13.355469 48.417969 13.355469 47.101562 C 13.355469 45.773438 13.199219 44.894531 12.886719 44.464844 C 12.574219 44.023438 12.191406 43.800781 11.734375 43.800781 C 11.277344 43.800781 10.914062 43.992188 10.640625 44.367188 C 10.300781 44.863281 10.132812 45.773438 10.132812 47.101562 Z M 10.132812 47.101562 "/>
<path style=" stroke:none;fill-rule:nonzero;fill:rgb(69.803922%,85.098039%,100%);fill-opacity:1;" d="M 68.027344 81.25 L 90.527344 81.25 L 90.527344 58.75 L 68.027344 58.75 Z M 68.027344 81.25 "/>
<path style="fill:none;stroke-width:1;stroke-linecap:round;stroke-linejoin:round;stroke:rgb(0%,0%,0%);stroke-opacity:1;stroke-miterlimit:10;" d="M 66.421875 182 L 84.421875 182 L 84.421875 200 L 66.421875 200 Z M 66.421875 182 " transform="matrix(1.25,0,0,1.25,-15,-168.75)"/>
<path style=" stroke:none;fill-rule:nonzero;fill:rgb(0%,0%,0%);fill-opacity:1;" d="M 81.8125 72.609375 L 81.8125 73.566406 L 76.480469 73.566406 C 76.480469 73.332031 76.519531 73.105469 76.597656 72.882812 C 76.742188 72.519531 76.960938 72.160156 77.261719 71.808594 C 77.5625 71.457031 77.992188 71.054688 78.550781 70.597656 C 79.421875 69.871094 80.007812 69.296875 80.308594 68.878906 C 80.621094 68.464844 80.777344 68.066406 80.777344 67.6875 C 80.777344 67.296875 80.632812 66.972656 80.347656 66.710938 C 80.074219 66.4375 79.714844 66.300781 79.273438 66.300781 C 78.792969 66.300781 78.40625 66.445312 78.121094 66.730469 C 77.835938 67.019531 77.691406 67.414062 77.691406 67.921875 L 76.675781 67.804688 C 76.742188 67.050781 77 66.476562 77.457031 66.085938 C 77.914062 65.683594 78.523438 65.480469 79.292969 65.480469 C 80.0625 65.480469 80.667969 65.695312 81.109375 66.125 C 81.566406 66.554688 81.792969 67.082031 81.792969 67.707031 C 81.792969 68.035156 81.726562 68.351562 81.597656 68.664062 C 81.46875 68.976562 81.246094 69.308594 80.933594 69.660156 C 80.632812 70 80.132812 70.46875 79.429688 71.066406 C 78.832031 71.5625 78.445312 71.902344 78.277344 72.082031 C 78.109375 72.265625 77.972656 72.441406 77.867188 72.609375 Z M 81.8125 72.609375 "/>
<g clip-path="url(#clip15)" clip-rule="nonzero">
<path style=" stroke:none;fill-rule:nonzero;fill:rgb(69.803922%,85.098039%,100%);fill-opacity:1;" d="M 68.027344 58.75 L 90.527344 58.75 L 90.527344 36.25 L 68.027344 36.25 Z M 68.027344 58.75 "/>
<path style="fill:none;stroke-width:2;stroke-linecap:round;stroke-linejoin:round;stroke:rgb(0%,0%,0%);stroke-opacity:1;stroke-dasharray:1,4;stroke-miterlimit:10;" d="M 66.421875 164 L 84.421875 164 L 84.421875 182 L 66.421875 182 Z M 66.421875 164 " transform="matrix(1.25,0,0,1.25,-15,-168.75)"/>
</g>
<path style=" stroke:none;fill-rule:nonzero;fill:rgb(0%,0%,0%);fill-opacity:1;" d="M 76.617188 47.101562 C 76.617188 46.152344 76.714844 45.382812 76.910156 44.796875 C 77.105469 44.210938 77.390625 43.761719 77.769531 43.449219 C 78.160156 43.136719 78.648438 42.980469 79.234375 42.980469 C 79.675781 42.980469 80.0625 43.074219 80.386719 43.253906 C 80.710938 43.425781 80.980469 43.671875 81.1875 43.996094 C 81.394531 44.324219 81.558594 44.71875 81.675781 45.1875 C 81.804688 45.65625 81.871094 46.296875 81.871094 47.101562 C 81.871094 48.039062 81.773438 48.800781 81.578125 49.386719 C 81.382812 49.960938 81.089844 50.410156 80.699219 50.734375 C 80.320312 51.046875 79.832031 51.203125 79.234375 51.203125 C 78.464844 51.203125 77.859375 50.925781 77.417969 50.363281 C 76.882812 49.699219 76.617188 48.613281 76.617188 47.101562 Z M 77.632812 47.101562 C 77.632812 48.417969 77.78125 49.296875 78.082031 49.738281 C 78.394531 50.167969 78.777344 50.382812 79.234375 50.382812 C 79.691406 50.382812 80.074219 50.167969 80.386719 49.738281 C 80.699219 49.296875 80.855469 48.417969 80.855469 47.101562 C 80.855469 45.773438 80.699219 44.894531 80.386719 44.464844 C 80.074219 44.023438 79.691406 43.800781 79.234375 43.800781 C 78.777344 43.800781 78.414062 43.992188 78.140625 44.367188 C 77.800781 44.863281 77.632812 45.773438 77.632812 47.101562 Z M 77.632812 47.101562 "/>
<path style=" stroke:none;fill-rule:nonzero;fill:rgb(100%,100%,100%);fill-opacity:1;" d="M 45.527344 126.25 L 68.027344 126.25 L 68.027344 103.75 L 45.527344 103.75 Z M 45.527344 126.25 "/>
<path style="fill:none;stroke-width:1;stroke-linecap:round;stroke-linejoin:round;stroke:rgb(0%,0%,0%);stroke-opacity:1;stroke-miterlimit:10;" d="M 48.421875 218 L 66.421875 218 L 66.421875 236 L 48.421875 236 Z M 48.421875 218 " transform="matrix(1.25,0,0,1.25,-15,-168.75)"/>
<path style=" stroke:none;fill-rule:nonzero;fill:rgb(0%,0%,0%);fill-opacity:1;" d="M 54.175781 111.574219 L 54.175781 110.617188 L 59.390625 110.617188 L 59.390625 111.378906 C 58.882812 111.925781 58.375 112.65625 57.867188 113.566406 C 57.359375 114.464844 56.96875 115.398438 56.695312 116.359375 C 56.5 117.023438 56.375 117.761719 56.324219 118.566406 L 55.308594 118.566406 C 55.320312 117.929688 55.445312 117.167969 55.679688 116.28125 C 55.914062 115.382812 56.253906 114.519531 56.695312 113.683594 C 57.152344 112.851562 57.625 112.148438 58.121094 111.574219 Z M 54.175781 111.574219 "/>
<path style=" stroke:none;fill-rule:nonzero;fill:rgb(100%,100%,100%);fill-opacity:1;" d="M 45.527344 103.75 L 68.027344 103.75 L 68.027344 81.25 L 45.527344 81.25 Z M 45.527344 103.75 "/>
<path style="fill:none;stroke-width:1;stroke-linecap:round;stroke-linejoin:round;stroke:rgb(0%,0%,0%);stroke-opacity:1;stroke-miterlimit:10;" d="M 48.421875 200 L 66.421875 200 L 66.421875 218 L 48.421875 218 Z M 48.421875 200 " transform="matrix(1.25,0,0,1.25,-15,-168.75)"/>
<path style=" stroke:none;fill-rule:nonzero;fill:rgb(0%,0%,0%);fill-opacity:1;" d="M 57.28125 96.066406 L 57.28125 94.132812 L 53.785156 94.132812 L 53.785156 93.234375 L 57.457031 88.019531 L 58.277344 88.019531 L 58.277344 93.234375 L 59.371094 93.234375 L 59.371094 94.132812 L 58.277344 94.132812 L 58.277344 96.066406 Z M 57.28125 93.234375 L 57.28125 89.601562 L 54.761719 93.234375 Z M 57.28125 93.234375 "/>
<g clip-path="url(#clip16)" clip-rule="nonzero">
<path style=" stroke:none;fill-rule:nonzero;fill:rgb(69.803922%,85.098039%,100%);fill-opacity:1;" d="M 45.527344 58.75 L 68.027344 58.75 L 68.027344 36.25 L 45.527344 36.25 Z M 45.527344 58.75 "/>
<path style="fill:none;stroke-width:2;stroke-linecap:round;stroke-linejoin:round;stroke:rgb(0%,0%,0%);stroke-opacity:1;stroke-dasharray:1,4;stroke-miterlimit:10;" d="M 48.421875 164 L 66.421875 164 L 66.421875 182 L 48.421875 182 Z M 48.421875 164 " transform="matrix(1.25,0,0,1.25,-15,-168.75)"/>
</g>
<path style=" stroke:none;fill-rule:nonzero;fill:rgb(0%,0%,0%);fill-opacity:1;" d="M 54.117188 47.101562 C 54.117188 46.152344 54.214844 45.382812 54.410156 44.796875 C 54.605469 44.210938 54.890625 43.761719 55.269531 43.449219 C 55.660156 43.136719 56.148438 42.980469 56.734375 42.980469 C 57.175781 42.980469 57.5625 43.074219 57.886719 43.253906 C 58.210938 43.425781 58.480469 43.671875 58.6875 43.996094 C 58.894531 44.324219 59.058594 44.71875 59.175781 45.1875 C 59.304688 45.65625 59.371094 46.296875 59.371094 47.101562 C 59.371094 48.039062 59.273438 48.800781 59.078125 49.386719 C 58.882812 49.960938 58.589844 50.410156 58.199219 50.734375 C 57.820312 51.046875 57.332031 51.203125 56.734375 51.203125 C 55.964844 51.203125 55.359375 50.925781 54.917969 50.363281 C 54.382812 49.699219 54.117188 48.613281 54.117188 47.101562 Z M 55.132812 47.101562 C 55.132812 48.417969 55.28125 49.296875 55.582031 49.738281 C 55.894531 50.167969 56.277344 50.382812 56.734375 50.382812 C 57.191406 50.382812 57.574219 50.167969 57.886719 49.738281 C 58.199219 49.296875 58.355469 48.417969 58.355469 47.101562 C 58.355469 45.773438 58.199219 44.894531 57.886719 44.464844 C 57.574219 44.023438 57.191406 43.800781 56.734375 43.800781 C 56.277344 43.800781 55.914062 43.992188 55.640625 44.367188 C 55.300781 44.863281 55.132812 45.773438 55.132812 47.101562 Z M 55.132812 47.101562 "/>
<path style=" stroke:none;fill-rule:nonzero;fill:rgb(69.803922%,85.098039%,100%);fill-opacity:1;" d="M 23.027344 126.25 L 45.527344 126.25 L 45.527344 103.75 L 23.027344 103.75 Z M 23.027344 126.25 "/>
<path style="fill:none;stroke-width:1;stroke-linecap:round;stroke-linejoin:round;stroke:rgb(0%,0%,0%);stroke-opacity:1;stroke-miterlimit:10;" d="M 30.421875 218 L 48.421875 218 L 48.421875 236 L 30.421875 236 Z M 30.421875 218 " transform="matrix(1.25,0,0,1.25,-15,-168.75)"/>
<path style=" stroke:none;fill-rule:nonzero;fill:rgb(0%,0%,0%);fill-opacity:1;" d="M 36.753906 112.492188 L 35.757812 112.570312 C 35.679688 112.179688 35.554688 111.894531 35.386719 111.710938 C 35.125 111.4375 34.800781 111.300781 34.410156 111.300781 C 34.085938 111.300781 33.804688 111.386719 33.570312 111.554688 C 33.257812 111.789062 33.011719 112.121094 32.828125 112.550781 C 32.660156 112.980469 32.566406 113.601562 32.554688 114.40625 C 32.789062 114.054688 33.074219 113.796875 33.414062 113.625 C 33.765625 113.445312 34.128906 113.351562 34.507812 113.351562 C 35.171875 113.351562 35.730469 113.59375 36.1875 114.074219 C 36.65625 114.558594 36.890625 115.183594 36.890625 115.949219 C 36.890625 116.457031 36.78125 116.933594 36.558594 117.375 C 36.335938 117.804688 36.039062 118.136719 35.660156 118.371094 C 35.28125 118.589844 34.851562 118.703125 34.371094 118.703125 C 33.550781 118.703125 32.878906 118.40625 32.359375 117.804688 C 31.839844 117.195312 31.578125 116.191406 31.578125 114.796875 C 31.578125 113.25 31.863281 112.117188 32.4375 111.398438 C 32.933594 110.789062 33.609375 110.480469 34.46875 110.480469 C 35.09375 110.480469 35.609375 110.664062 36.011719 111.027344 C 36.414062 111.378906 36.664062 111.867188 36.753906 112.492188 Z M 32.710938 115.949219 C 32.710938 116.300781 32.78125 116.632812 32.925781 116.945312 C 33.070312 117.246094 33.269531 117.480469 33.53125 117.648438 C 33.792969 117.804688 34.066406 117.882812 34.351562 117.882812 C 34.769531 117.882812 35.125 117.722656 35.425781 117.394531 C 35.726562 117.058594 35.875 116.59375 35.875 116.007812 C 35.875 115.449219 35.726562 115.011719 35.425781 114.699219 C 35.140625 114.375 34.769531 114.210938 34.3125 114.210938 C 33.871094 114.210938 33.492188 114.375 33.179688 114.699219 C 32.867188 115.011719 32.710938 115.429688 32.710938 115.949219 Z M 32.710938 115.949219 "/>
<path style=" stroke:none;fill-rule:nonzero;fill:rgb(69.803922%,85.098039%,100%);fill-opacity:1;" d="M 160.476562 115 L 182.976562 115 L 182.976562 92.5 L 160.476562 92.5 Z M 160.476562 115 "/>
<path style="fill:none;stroke-width:1;stroke-linecap:round;stroke-linejoin:round;stroke:rgb(0%,0%,0%);stroke-opacity:1;stroke-miterlimit:10;" d="M 140.38125 209 L 158.38125 209 L 158.38125 227 L 140.38125 227 Z M 140.38125 209 " transform="matrix(1.25,0,0,1.25,-15,-168.75)"/>
<path style=" stroke:none;fill-rule:nonzero;fill:rgb(0%,0%,0%);fill-opacity:1;" d="M 174.261719 106.359375 L 174.261719 107.316406 L 168.929688 107.316406 C 168.929688 107.082031 168.96875 106.855469 169.046875 106.632812 C 169.191406 106.269531 169.410156 105.910156 169.710938 105.558594 C 170.011719 105.207031 170.441406 104.804688 171 104.347656 C 171.871094 103.621094 172.457031 103.046875 172.757812 102.628906 C 173.070312 102.214844 173.226562 101.816406 173.226562 101.4375 C 173.226562 101.046875 173.082031 100.722656 172.796875 100.460938 C 172.523438 100.1875 172.164062 100.050781 171.722656 100.050781 C 171.242188 100.050781 170.855469 100.195312 170.570312 100.480469 C 170.285156 100.769531 170.140625 101.164062 170.140625 101.671875 L 169.125 101.554688 C 169.191406 100.800781 169.449219 100.226562 169.90625 99.835938 C 170.363281 99.433594 170.972656 99.230469 171.742188 99.230469 C 172.511719 99.230469 173.117188 99.445312 173.558594 99.875 C 174.015625 100.304688 174.242188 100.832031 174.242188 101.457031 C 174.242188 101.785156 174.175781 102.101562 174.046875 102.414062 C 173.917969 102.726562 173.695312 103.058594 173.382812 103.410156 C 173.082031 103.75 172.582031 104.21875 171.878906 104.816406 C 171.28125 105.3125 170.894531 105.652344 170.726562 105.832031 C 170.558594 106.015625 170.421875 106.191406 170.316406 106.359375 Z M 174.261719 106.359375 "/>
<path style=" stroke:none;fill-rule:nonzero;fill:rgb(69.803922%,85.098039%,100%);fill-opacity:1;" d="M 182.976562 115 L 205.476562 115 L 205.476562 92.5 L 182.976562 92.5 Z M 182.976562 115 "/>
<path style="fill:none;stroke-width:1;stroke-linecap:round;stroke-linejoin:round;stroke:rgb(0%,0%,0%);stroke-opacity:1;stroke-miterlimit:10;" d="M 158.38125 209 L 176.38125 209 L 176.38125 227 L 158.38125 227 Z M 158.38125 209 " transform="matrix(1.25,0,0,1.25,-15,-168.75)"/>
<path style=" stroke:none;fill-rule:nonzero;fill:rgb(0%,0%,0%);fill-opacity:1;" d="M 191.566406 105.1875 L 192.5625 105.050781 C 192.679688 105.613281 192.867188 106.015625 193.128906 106.261719 C 193.402344 106.511719 193.742188 106.632812 194.144531 106.632812 C 194.601562 106.632812 194.984375 106.476562 195.296875 106.164062 C 195.621094 105.839844 195.785156 105.4375 195.785156 104.953125 C 195.785156 104.5 195.636719 104.128906 195.335938 103.839844 C 195.050781 103.542969 194.679688 103.390625 194.222656 103.390625 C 194.027344 103.390625 193.792969 103.429688 193.519531 103.507812 L 193.636719 102.628906 C 193.703125 102.644531 193.753906 102.648438 193.792969 102.648438 C 194.210938 102.648438 194.585938 102.539062 194.925781 102.316406 C 195.265625 102.097656 195.433594 101.757812 195.433594 101.300781 C 195.433594 100.9375 195.308594 100.636719 195.0625 100.402344 C 194.816406 100.167969 194.496094 100.050781 194.105469 100.050781 C 193.726562 100.050781 193.410156 100.175781 193.148438 100.421875 C 192.902344 100.65625 192.738281 101.015625 192.660156 101.496094 L 191.664062 101.320312 C 191.792969 100.65625 192.066406 100.144531 192.484375 99.777344 C 192.914062 99.414062 193.449219 99.230469 194.085938 99.230469 C 194.527344 99.230469 194.933594 99.328125 195.296875 99.523438 C 195.675781 99.707031 195.960938 99.960938 196.15625 100.285156 C 196.351562 100.613281 196.449219 100.957031 196.449219 101.320312 C 196.449219 101.671875 196.351562 101.992188 196.15625 102.277344 C 195.972656 102.566406 195.699219 102.792969 195.335938 102.960938 C 195.816406 103.066406 196.1875 103.292969 196.449219 103.644531 C 196.710938 103.984375 196.839844 104.414062 196.839844 104.933594 C 196.839844 105.636719 196.578125 106.238281 196.058594 106.730469 C 195.550781 107.214844 194.90625 107.453125 194.125 107.453125 C 193.421875 107.453125 192.835938 107.246094 192.367188 106.828125 C 191.898438 106.414062 191.632812 105.867188 191.566406 105.1875 Z M 191.566406 105.1875 "/>
<path style=" stroke:none;fill-rule:nonzero;fill:rgb(69.803922%,85.098039%,100%);fill-opacity:1;" d="M 182.976562 92.5 L 205.476562 92.5 L 205.476562 70 L 182.976562 70 Z M 182.976562 92.5 "/>
<path style="fill:none;stroke-width:1;stroke-linecap:round;stroke-linejoin:round;stroke:rgb(0%,0%,0%);stroke-opacity:1;stroke-miterlimit:10;" d="M 158.38125 191 L 176.38125 191 L 176.38125 209 L 158.38125 209 Z M 158.38125 191 " transform="matrix(1.25,0,0,1.25,-15,-168.75)"/>
<path style=" stroke:none;fill-rule:nonzero;fill:rgb(0%,0%,0%);fill-opacity:1;" d="M 195.296875 84.816406 L 194.300781 84.816406 L 194.300781 78.507812 C 194.066406 78.742188 193.753906 78.976562 193.363281 79.210938 C 192.972656 79.433594 192.628906 79.597656 192.328125 79.699219 L 192.328125 78.742188 C 192.875 78.496094 193.355469 78.191406 193.773438 77.824219 C 194.191406 77.449219 194.484375 77.082031 194.652344 76.730469 L 195.296875 76.730469 Z M 195.296875 84.816406 "/>
<path style=" stroke:none;fill-rule:nonzero;fill:rgb(69.803922%,85.098039%,100%);fill-opacity:1;" d="M 160.476562 92.5 L 182.976562 92.5 L 182.976562 70 L 160.476562 70 Z M 160.476562 92.5 "/>
<path style="fill:none;stroke-width:1;stroke-linecap:round;stroke-linejoin:round;stroke:rgb(0%,0%,0%);stroke-opacity:1;stroke-miterlimit:10;" d="M 140.38125 191 L 158.38125 191 L 158.38125 209 L 140.38125 209 Z M 140.38125 191 " transform="matrix(1.25,0,0,1.25,-15,-168.75)"/>
<path style=" stroke:none;fill-rule:nonzero;fill:rgb(0%,0%,0%);fill-opacity:1;" d="M 169.066406 80.851562 C 169.066406 79.902344 169.164062 79.132812 169.359375 78.546875 C 169.554688 77.960938 169.839844 77.511719 170.21875 77.199219 C 170.609375 76.886719 171.097656 76.730469 171.683594 76.730469 C 172.125 76.730469 172.511719 76.824219 172.835938 77.003906 C 173.160156 77.175781 173.429688 77.421875 173.636719 77.746094 C 173.84375 78.074219 174.007812 78.46875 174.125 78.9375 C 174.253906 79.40625 174.320312 80.046875 174.320312 80.851562 C 174.320312 81.789062 174.222656 82.550781 174.027344 83.136719 C 173.832031 83.710938 173.539062 84.160156 173.148438 84.484375 C 172.769531 84.796875 172.28125 84.953125 171.683594 84.953125 C 170.914062 84.953125 170.308594 84.675781 169.867188 84.113281 C 169.332031 83.449219 169.066406 82.363281 169.066406 80.851562 Z M 170.082031 80.851562 C 170.082031 82.167969 170.230469 83.046875 170.53125 83.488281 C 170.84375 83.917969 171.226562 84.132812 171.683594 84.132812 C 172.140625 84.132812 172.523438 83.917969 172.835938 83.488281 C 173.148438 83.046875 173.304688 82.167969 173.304688 80.851562 C 173.304688 79.523438 173.148438 78.644531 172.835938 78.214844 C 172.523438 77.773438 172.140625 77.550781 171.683594 77.550781 C 171.226562 77.550781 170.863281 77.742188 170.589844 78.117188 C 170.25 78.613281 170.082031 79.523438 170.082031 80.851562 Z M 170.082031 80.851562 "/>
<path style=" stroke:none;fill-rule:nonzero;fill:rgb(69.803922%,85.098039%,100%);fill-opacity:1;" d="M 263.65625 115 L 286.15625 115 L 286.15625 92.5 L 263.65625 92.5 Z M 263.65625 115 "/>
<path style="fill:none;stroke-width:1;stroke-linecap:round;stroke-linejoin:round;stroke:rgb(0%,0%,0%);stroke-opacity:1;stroke-miterlimit:10;" d="M 222.925 209 L 240.925 209 L 240.925 227 L 222.925 227 Z M 222.925 209 " transform="matrix(1.25,0,0,1.25,-15,-168.75)"/>
<path style=" stroke:none;fill-rule:nonzero;fill:rgb(0%,0%,0%);fill-opacity:1;" d="M 277.386719 101.242188 L 276.390625 101.320312 C 276.3125 100.929688 276.183594 100.644531 276.019531 100.460938 C 275.753906 100.1875 275.433594 100.050781 275.042969 100.050781 C 274.714844 100.050781 274.4375 100.136719 274.203125 100.304688 C 273.890625 100.539062 273.640625 100.871094 273.460938 101.300781 C 273.289062 101.730469 273.195312 102.351562 273.1875 103.15625 C 273.421875 102.804688 273.703125 102.546875 274.046875 102.375 C 274.398438 102.195312 274.757812 102.101562 275.140625 102.101562 C 275.804688 102.101562 276.359375 102.34375 276.820312 102.824219 C 277.289062 103.308594 277.523438 103.933594 277.523438 104.699219 C 277.523438 105.207031 277.410156 105.683594 277.191406 106.125 C 276.964844 106.554688 276.667969 106.886719 276.292969 107.121094 C 275.910156 107.339844 275.480469 107.453125 275.003906 107.453125 C 274.183594 107.453125 273.507812 107.15625 272.992188 106.554688 C 272.46875 105.945312 272.210938 104.941406 272.210938 103.546875 C 272.210938 102 272.492188 100.867188 273.070312 100.148438 C 273.5625 99.539062 274.242188 99.230469 275.101562 99.230469 C 275.726562 99.230469 276.238281 99.414062 276.644531 99.777344 C 277.042969 100.128906 277.292969 100.617188 277.386719 101.242188 Z M 273.34375 104.699219 C 273.34375 105.050781 273.410156 105.382812 273.558594 105.695312 C 273.699219 105.996094 273.898438 106.230469 274.164062 106.398438 C 274.421875 106.554688 274.695312 106.632812 274.984375 106.632812 C 275.398438 106.632812 275.753906 106.472656 276.058594 106.144531 C 276.355469 105.808594 276.507812 105.34375 276.507812 104.757812 C 276.507812 104.199219 276.355469 103.761719 276.058594 103.449219 C 275.769531 103.125 275.398438 102.960938 274.945312 102.960938 C 274.5 102.960938 274.125 103.125 273.8125 103.449219 C 273.5 103.761719 273.34375 104.179688 273.34375 104.699219 Z M 273.34375 104.699219 "/>
<path style=" stroke:none;fill-rule:nonzero;fill:rgb(100%,100%,100%);fill-opacity:1;" d="M 286.15625 115 L 308.65625 115 L 308.65625 92.5 L 286.15625 92.5 Z M 286.15625 115 "/>
<path style="fill:none;stroke-width:1;stroke-linecap:round;stroke-linejoin:round;stroke:rgb(0%,0%,0%);stroke-opacity:1;stroke-miterlimit:10;" d="M 240.925 209 L 258.925 209 L 258.925 227 L 240.925 227 Z M 240.925 209 " transform="matrix(1.25,0,0,1.25,-15,-168.75)"/>
<path style=" stroke:none;fill-rule:nonzero;fill:rgb(0%,0%,0%);fill-opacity:1;" d="M 296.273438 102.941406 C 295.851562 102.800781 295.550781 102.589844 295.355469 102.316406 C 295.160156 102.03125 295.0625 101.691406 295.0625 101.300781 C 295.0625 100.714844 295.265625 100.226562 295.6875 99.835938 C 296.117188 99.433594 296.671875 99.230469 297.367188 99.230469 C 298.070312 99.230469 298.636719 99.441406 299.066406 99.855469 C 299.496094 100.261719 299.710938 100.753906 299.710938 101.339844 C 299.710938 101.707031 299.613281 102.03125 299.417969 102.316406 C 299.222656 102.589844 298.917969 102.800781 298.519531 102.941406 C 299.011719 103.113281 299.386719 103.378906 299.652344 103.742188 C 299.910156 104.09375 300.042969 104.519531 300.042969 105.011719 C 300.042969 105.703125 299.792969 106.28125 299.300781 106.75 C 298.816406 107.21875 298.175781 107.453125 297.386719 107.453125 C 296.589844 107.453125 295.945312 107.21875 295.453125 106.75 C 294.96875 106.28125 294.730469 105.695312 294.730469 104.992188 C 294.730469 104.472656 294.855469 104.035156 295.121094 103.683594 C 295.394531 103.320312 295.773438 103.074219 296.273438 102.941406 Z M 296.078125 101.28125 C 296.078125 101.660156 296.195312 101.972656 296.429688 102.21875 C 296.671875 102.453125 296.996094 102.570312 297.386719 102.570312 C 297.777344 102.570312 298.089844 102.453125 298.324219 102.21875 C 298.566406 101.972656 298.695312 101.671875 298.695312 101.320312 C 298.695312 100.96875 298.566406 100.671875 298.324219 100.421875 C 298.074219 100.175781 297.761719 100.050781 297.386719 100.050781 C 297.003906 100.050781 296.691406 100.175781 296.449219 100.421875 C 296.199219 100.65625 296.078125 100.945312 296.078125 101.28125 Z M 295.746094 104.992188 C 295.746094 105.28125 295.808594 105.554688 295.941406 105.8125 C 296.082031 106.074219 296.28125 106.277344 296.546875 106.417969 C 296.804688 106.5625 297.09375 106.632812 297.40625 106.632812 C 297.875 106.632812 298.253906 106.484375 298.558594 106.183594 C 298.871094 105.886719 299.027344 105.5 299.027344 105.03125 C 299.027344 104.550781 298.871094 104.152344 298.558594 103.839844 C 298.246094 103.527344 297.84375 103.371094 297.367188 103.371094 C 296.898438 103.371094 296.507812 103.527344 296.195312 103.839844 C 295.890625 104.152344 295.746094 104.539062 295.746094 104.992188 Z M 295.746094 104.992188 "/>
<path style=" stroke:none;fill-rule:nonzero;fill:rgb(100%,100%,100%);fill-opacity:1;" d="M 263.65625 92.5 L 286.15625 92.5 L 286.15625 70 L 263.65625 70 Z M 263.65625 92.5 "/>
<path style="fill:none;stroke-width:1;stroke-linecap:round;stroke-linejoin:round;stroke:rgb(0%,0%,0%);stroke-opacity:1;stroke-miterlimit:10;" d="M 222.925 191 L 240.925 191 L 240.925 209 L 222.925 209 Z M 222.925 191 " transform="matrix(1.25,0,0,1.25,-15,-168.75)"/>
<path style=" stroke:none;fill-rule:nonzero;fill:rgb(0%,0%,0%);fill-opacity:1;" d="M 272.25 80.851562 C 272.25 79.902344 272.347656 79.132812 272.542969 78.546875 C 272.738281 77.960938 273.019531 77.511719 273.402344 77.199219 C 273.792969 76.886719 274.28125 76.730469 274.867188 76.730469 C 275.304688 76.730469 275.691406 76.824219 276.019531 77.003906 C 276.339844 77.175781 276.609375 77.421875 276.820312 77.746094 C 277.023438 78.074219 277.191406 78.46875 277.308594 78.9375 C 277.433594 79.40625 277.503906 80.046875 277.503906 80.851562 C 277.503906 81.789062 277.40625 82.550781 277.210938 83.136719 C 277.015625 83.710938 276.722656 84.160156 276.332031 84.484375 C 275.949219 84.796875 275.460938 84.953125 274.867188 84.953125 C 274.09375 84.953125 273.488281 84.675781 273.050781 84.113281 C 272.511719 83.449219 272.25 82.363281 272.25 80.851562 Z M 273.265625 80.851562 C 273.265625 82.167969 273.410156 83.046875 273.714844 83.488281 C 274.027344 83.917969 274.40625 84.132812 274.867188 84.132812 C 275.320312 84.132812 275.707031 83.917969 276.019531 83.488281 C 276.332031 83.046875 276.488281 82.167969 276.488281 80.851562 C 276.488281 79.523438 276.332031 78.644531 276.019531 78.214844 C 275.707031 77.773438 275.320312 77.550781 274.867188 77.550781 C 274.40625 77.550781 274.046875 77.742188 273.773438 78.117188 C 273.429688 78.613281 273.265625 79.523438 273.265625 80.851562 Z M 273.265625 80.851562 "/>
<path style=" stroke:none;fill-rule:nonzero;fill:rgb(69.803922%,85.098039%,100%);fill-opacity:1;" d="M 286.15625 92.5 L 308.65625 92.5 L 308.65625 70 L 286.15625 70 Z M 286.15625 92.5 "/>
<path style="fill:none;stroke-width:1;stroke-linecap:round;stroke-linejoin:round;stroke:rgb(0%,0%,0%);stroke-opacity:1;stroke-miterlimit:10;" d="M 240.925 191 L 258.925 191 L 258.925 209 L 240.925 209 Z M 240.925 191 " transform="matrix(1.25,0,0,1.25,-15,-168.75)"/>
<path style=" stroke:none;fill-rule:nonzero;fill:rgb(0%,0%,0%);fill-opacity:1;" d="M 296.273438 80.441406 C 295.851562 80.300781 295.550781 80.089844 295.355469 79.816406 C 295.160156 79.53125 295.0625 79.191406 295.0625 78.800781 C 295.0625 78.214844 295.265625 77.726562 295.6875 77.335938 C 296.117188 76.933594 296.671875 76.730469 297.367188 76.730469 C 298.070312 76.730469 298.636719 76.941406 299.066406 77.355469 C 299.496094 77.761719 299.710938 78.253906 299.710938 78.839844 C 299.710938 79.207031 299.613281 79.53125 299.417969 79.816406 C 299.222656 80.089844 298.917969 80.300781 298.519531 80.441406 C 299.011719 80.613281 299.386719 80.878906 299.652344 81.242188 C 299.910156 81.59375 300.042969 82.019531 300.042969 82.511719 C 300.042969 83.203125 299.792969 83.78125 299.300781 84.25 C 298.816406 84.71875 298.175781 84.953125 297.386719 84.953125 C 296.589844 84.953125 295.945312 84.71875 295.453125 84.25 C 294.96875 83.78125 294.730469 83.195312 294.730469 82.492188 C 294.730469 81.972656 294.855469 81.535156 295.121094 81.183594 C 295.394531 80.820312 295.773438 80.574219 296.273438 80.441406 Z M 296.078125 78.78125 C 296.078125 79.160156 296.195312 79.472656 296.429688 79.71875 C 296.671875 79.953125 296.996094 80.070312 297.386719 80.070312 C 297.777344 80.070312 298.089844 79.953125 298.324219 79.71875 C 298.566406 79.472656 298.695312 79.171875 298.695312 78.820312 C 298.695312 78.46875 298.566406 78.171875 298.324219 77.921875 C 298.074219 77.675781 297.761719 77.550781 297.386719 77.550781 C 297.003906 77.550781 296.691406 77.675781 296.449219 77.921875 C 296.199219 78.15625 296.078125 78.445312 296.078125 78.78125 Z M 295.746094 82.492188 C 295.746094 82.78125 295.808594 83.054688 295.941406 83.3125 C 296.082031 83.574219 296.28125 83.777344 296.546875 83.917969 C 296.804688 84.0625 297.09375 84.132812 297.40625 84.132812 C 297.875 84.132812 298.253906 83.984375 298.558594 83.683594 C 298.871094 83.386719 299.027344 83 299.027344 82.53125 C 299.027344 82.050781 298.871094 81.652344 298.558594 81.339844 C 298.246094 81.027344 297.84375 80.871094 297.367188 80.871094 C 296.898438 80.871094 296.507812 81.027344 296.195312 81.339844 C 295.890625 81.652344 295.746094 82.039062 295.746094 82.492188 Z M 295.746094 82.492188 "/>
<path style=" stroke:none;fill-rule:nonzero;fill:rgb(0%,0%,0%);fill-opacity:1;" d="M 132.078125 91.75 L 132.585938 90.1875 C 133.746094 90.59375 134.589844 90.945312 135.125 91.242188 C 134.980469 89.929688 134.910156 89.015625 134.910156 88.507812 L 136.492188 88.507812 C 136.464844 89.242188 136.382812 90.148438 136.238281 91.242188 C 136.992188 90.867188 137.859375 90.515625 138.835938 90.1875 L 139.34375 91.75 C 138.40625 92.054688 137.496094 92.253906 136.609375 92.355469 C 137.050781 92.746094 137.683594 93.441406 138.503906 94.425781 L 137.175781 95.363281 C 136.746094 94.792969 136.246094 94.007812 135.671875 93 C 135.125 94.046875 134.648438 94.832031 134.246094 95.363281 L 132.9375 94.425781 C 133.796875 93.386719 134.410156 92.699219 134.773438 92.355469 C 133.824219 92.175781 132.925781 91.976562 132.078125 91.75 Z M 132.078125 91.75 "/>
<path style=" stroke:none;fill-rule:nonzero;fill:rgb(0%,0%,0%);fill-opacity:1;" d="M 237.941406 89.902344 L 227.296875 89.902344 L 227.296875 88.066406 L 237.941406 88.066406 Z M 237.941406 94.785156 L 227.296875 94.785156 L 227.296875 92.949219 L 237.941406 92.949219 Z M 237.941406 94.785156 "/>
<path style=" stroke:none;fill-rule:nonzero;fill:rgb(0%,0%,0%);fill-opacity:1;" d="M 277.488281 12.695312 L 277.488281 14.355469 L 276.375 14.355469 C 276.648438 13.632812 276.921875 12.8125 277.15625 11.894531 L 279.324219 11.894531 L 279.324219 11.132812 L 277.351562 11.132812 C 277.449219 10.683594 277.546875 10.195312 277.664062 9.6875 L 276.921875 9.53125 C 276.804688 10.078125 276.707031 10.625 276.589844 11.132812 L 275.476562 11.132812 L 275.476562 11.894531 L 276.414062 11.894531 C 276.160156 12.890625 275.886719 13.75 275.554688 14.414062 L 275.730469 15.097656 L 277.488281 15.097656 L 277.488281 16.777344 C 276.824219 16.894531 276.140625 17.011719 275.398438 17.089844 L 275.496094 17.890625 C 276.179688 17.773438 276.84375 17.675781 277.488281 17.539062 L 277.488281 19.882812 L 278.230469 19.882812 L 278.230469 17.382812 L 279.304688 17.109375 L 279.304688 16.347656 C 278.972656 16.425781 278.621094 16.523438 278.230469 16.621094 L 278.230469 15.097656 L 279.265625 15.097656 L 279.265625 14.355469 L 278.230469 14.355469 L 278.230469 12.695312 Z M 280.808594 12.109375 L 280.808594 12.773438 L 284.03125 12.773438 L 284.03125 12.109375 L 280.808594 12.109375 C 281.375 11.5625 281.921875 10.957031 282.449219 10.3125 C 283.308594 11.40625 284.265625 12.34375 285.320312 13.105469 L 285.75 12.480469 C 284.734375 11.757812 283.738281 10.800781 282.742188 9.589844 L 282.175781 9.589844 C 281.257812 10.703125 280.222656 11.699219 279.070312 12.539062 L 279.519531 13.222656 C 279.949219 12.871094 280.378906 12.5 280.808594 12.109375 Z M 281.589844 19.804688 C 282.136719 19.804688 282.429688 19.511719 282.429688 18.925781 L 282.429688 13.671875 L 279.773438 13.671875 L 279.773438 19.882812 L 280.476562 19.882812 L 280.476562 17.773438 L 281.746094 17.773438 L 281.746094 18.789062 C 281.746094 19.023438 281.609375 19.160156 281.375 19.160156 L 280.867188 19.140625 L 281.042969 19.804688 Z M 280.476562 17.148438 L 280.476562 16.074219 L 281.746094 16.074219 L 281.746094 17.148438 Z M 280.476562 15.449219 L 280.476562 14.335938 L 281.746094 14.335938 L 281.746094 15.449219 Z M 283.09375 13.984375 L 283.09375 18.027344 L 283.738281 18.027344 L 283.738281 13.984375 Z M 284.324219 19.824219 C 284.871094 19.824219 285.144531 19.492188 285.144531 18.847656 L 285.144531 13.476562 L 284.441406 13.476562 L 284.441406 18.671875 C 284.441406 18.984375 284.324219 19.160156 284.070312 19.160156 C 283.796875 19.160156 283.503906 19.140625 283.210938 19.101562 L 283.367188 19.824219 Z M 284.324219 19.824219 "/>
<path style=" stroke:none;fill-rule:nonzero;fill:rgb(0%,0%,0%);fill-opacity:1;" d="M 294.832031 13.476562 L 292.195312 13.476562 L 292.195312 9.550781 L 291.375 9.550781 L 291.375 13.476562 L 288.738281 13.476562 L 288.738281 10.410156 L 287.917969 10.410156 L 287.917969 14.257812 L 291.375 14.257812 L 291.375 18.398438 L 288.191406 18.398438 L 288.191406 15.3125 L 287.371094 15.3125 L 287.371094 19.804688 L 288.191406 19.804688 L 288.191406 19.160156 L 295.378906 19.160156 L 295.378906 19.804688 L 296.199219 19.804688 L 296.199219 15.3125 L 295.378906 15.3125 L 295.378906 18.398438 L 292.195312 18.398438 L 292.195312 14.257812 L 295.652344 14.257812 L 295.652344 10.410156 L 294.832031 10.410156 Z M 294.832031 13.476562 "/>
<path style=" stroke:none;fill-rule:nonzero;fill:rgb(0%,0%,0%);fill-opacity:1;" d="M 167.929688 14.140625 C 168.28125 14.628906 168.671875 15.273438 169.121094 16.054688 L 169.570312 15.371094 C 169.023438 14.589844 168.476562 13.886719 167.929688 13.261719 L 167.929688 12.539062 L 169.257812 12.539062 L 169.257812 11.757812 L 167.929688 11.757812 L 167.929688 9.570312 L 167.167969 9.570312 L 167.167969 11.757812 L 165.605469 11.757812 L 165.605469 12.539062 L 167.128906 12.539062 C 166.796875 14.023438 166.210938 15.351562 165.410156 16.523438 L 165.761719 17.34375 C 166.328125 16.425781 166.796875 15.390625 167.167969 14.238281 L 167.167969 19.882812 L 167.929688 19.882812 Z M 169.550781 10.800781 L 169.550781 11.523438 L 171.71875 11.523438 C 171.015625 12.753906 170.429688 13.515625 169.980469 13.808594 C 169.941406 13.828125 169.902344 13.847656 169.824219 13.867188 L 170 14.53125 C 170.878906 14.492188 171.71875 14.453125 172.519531 14.414062 C 171.601562 15.449219 170.449219 16.191406 169.101562 16.679688 L 169.53125 17.363281 C 171.71875 16.542969 173.359375 15.019531 174.492188 12.792969 L 173.828125 12.441406 C 173.613281 12.890625 173.339844 13.300781 173.046875 13.710938 C 172.363281 13.769531 171.640625 13.808594 170.9375 13.847656 C 171.40625 13.398438 171.933594 12.617188 172.558594 11.523438 L 175.644531 11.523438 L 175.644531 10.800781 L 173.144531 10.800781 C 172.988281 10.332031 172.8125 9.902344 172.65625 9.550781 L 171.816406 9.6875 C 172.011719 10.019531 172.207031 10.390625 172.363281 10.800781 Z M 173.144531 17.597656 C 173.984375 18.378906 174.648438 19.121094 175.136719 19.824219 L 175.722656 19.238281 C 175.15625 18.515625 174.453125 17.8125 173.652344 17.089844 C 174.375 16.347656 175.019531 15.46875 175.566406 14.472656 L 174.882812 14.101562 C 173.554688 16.5625 171.582031 18.242188 168.945312 19.101562 L 169.375 19.804688 C 170.820312 19.296875 172.070312 18.554688 173.144531 17.597656 Z M 173.144531 17.597656 "/>
<path style=" stroke:none;fill-rule:nonzero;fill:rgb(0%,0%,0%);fill-opacity:1;" d="M 178.632812 17.382812 C 179.707031 16.699219 180.722656 15.898438 181.679688 14.980469 L 181.679688 16.71875 C 181.679688 17.089844 181.523438 17.265625 181.210938 17.265625 C 180.878906 17.265625 180.566406 17.246094 180.273438 17.246094 L 180.488281 17.988281 L 181.503906 17.988281 C 182.109375 17.988281 182.421875 17.65625 182.421875 17.011719 L 182.421875 15.117188 C 183.105469 15.644531 183.945312 16.367188 184.921875 17.324219 L 185.390625 16.621094 C 184.375 15.742188 183.398438 14.980469 182.421875 14.296875 L 182.421875 12.578125 C 183.535156 11.972656 184.53125 11.367188 185.429688 10.742188 L 185.429688 9.980469 L 178.457031 9.980469 L 178.457031 10.742188 L 184.21875 10.742188 C 183.652344 11.113281 182.8125 11.582031 181.679688 12.128906 L 181.679688 14.0625 C 180.605469 15.078125 179.511719 15.917969 178.339844 16.582031 Z M 185.625 12.03125 L 185.625 18.515625 L 178.125 18.515625 L 178.125 12.03125 L 177.34375 12.03125 L 177.34375 19.882812 L 178.125 19.882812 L 178.125 19.257812 L 185.625 19.257812 L 185.625 19.902344 L 186.40625 19.902344 L 186.40625 12.03125 Z M 179.335938 12.382812 L 178.75 12.753906 C 179.394531 13.378906 179.921875 13.925781 180.3125 14.453125 L 180.9375 14.023438 C 180.566406 13.554688 180.039062 13.007812 179.335938 12.382812 Z M 184.453125 12.304688 C 184.042969 12.988281 183.515625 13.59375 182.929688 14.082031 L 183.515625 14.492188 C 184.121094 13.964844 184.667969 13.339844 185.117188 12.617188 Z M 184.453125 12.304688 "/>
<path style=" stroke:none;fill-rule:nonzero;fill:rgb(0%,0%,0%);fill-opacity:1;" d="M 194.902344 12.050781 L 196.5625 12.050781 C 196.523438 13.574219 196.289062 14.902344 195.839844 16.035156 C 195.390625 15.097656 195.039062 13.964844 194.765625 12.636719 Z M 195.46875 16.855469 C 194.960938 17.8125 194.277344 18.574219 193.398438 19.179688 L 193.808594 19.863281 C 194.648438 19.257812 195.351562 18.496094 195.898438 17.597656 C 196.445312 18.554688 197.128906 19.316406 197.910156 19.882812 L 198.359375 19.21875 C 197.539062 18.652344 196.855469 17.890625 196.269531 16.875 C 196.914062 15.546875 197.246094 13.925781 197.304688 12.050781 L 198.046875 12.050781 L 198.046875 11.289062 L 195.078125 11.289062 C 195.15625 10.78125 195.253906 10.253906 195.3125 9.667969 L 194.53125 9.53125 C 194.296875 11.679688 193.847656 13.378906 193.183594 14.628906 L 193.691406 15.253906 C 193.925781 14.84375 194.160156 14.394531 194.355469 13.867188 C 194.667969 15 195.039062 15.976562 195.46875 16.855469 Z M 190.136719 14.785156 C 190.058594 15.019531 189.980469 15.253906 189.882812 15.507812 L 188.222656 15.507812 L 188.222656 16.210938 L 189.550781 16.210938 C 189.335938 16.660156 189.082031 17.109375 188.789062 17.617188 C 189.335938 17.8125 189.84375 18.027344 190.351562 18.242188 C 189.6875 18.613281 188.886719 18.925781 187.96875 19.160156 L 188.359375 19.84375 C 189.472656 19.53125 190.410156 19.101562 191.152344 18.59375 C 191.816406 18.886719 192.402344 19.179688 192.890625 19.472656 L 193.320312 18.847656 C 192.832031 18.574219 192.324219 18.339844 191.777344 18.085938 C 192.363281 17.539062 192.773438 16.914062 193.027344 16.171875 L 193.027344 15.507812 L 190.664062 15.507812 C 190.742188 15.292969 190.820312 15.097656 190.898438 14.882812 Z M 191.035156 17.773438 C 190.625 17.597656 190.195312 17.441406 189.746094 17.285156 C 189.980469 16.953125 190.175781 16.582031 190.351562 16.210938 L 192.285156 16.210938 C 192.03125 16.796875 191.601562 17.324219 191.035156 17.773438 Z M 189.121094 9.765625 L 188.476562 9.980469 C 188.75 10.410156 189.003906 10.898438 189.238281 11.445312 L 189.824219 11.171875 C 189.609375 10.683594 189.394531 10.214844 189.121094 9.765625 Z M 192.539062 9.746094 C 192.34375 10.214844 192.050781 10.683594 191.679688 11.171875 L 192.265625 11.464844 C 192.617188 10.996094 192.890625 10.507812 193.125 10 Z M 188.261719 11.71875 L 188.261719 12.421875 L 189.84375 12.421875 C 189.511719 13.046875 188.90625 13.613281 188.046875 14.121094 L 188.4375 14.765625 C 189.394531 14.121094 190.078125 13.359375 190.449219 12.460938 L 190.449219 14.589844 L 191.210938 14.589844 L 191.210938 13.144531 C 191.601562 13.398438 192.089844 13.769531 192.65625 14.21875 L 193.066406 13.59375 C 192.441406 13.203125 191.816406 12.851562 191.210938 12.558594 L 191.210938 12.421875 L 193.242188 12.421875 L 193.242188 11.71875 L 191.210938 11.71875 L 191.210938 9.570312 L 190.449219 9.570312 L 190.449219 11.71875 Z M 188.261719 11.71875 "/>
<path style=" stroke:none;fill-rule:nonzero;fill:rgb(0%,0%,0%);fill-opacity:1;" d="M 48.105469 12.695312 L 48.105469 14.355469 L 46.992188 14.355469 C 47.265625 13.632812 47.539062 12.8125 47.773438 11.894531 L 49.941406 11.894531 L 49.941406 11.132812 L 47.96875 11.132812 C 48.066406 10.683594 48.164062 10.195312 48.28125 9.6875 L 47.539062 9.53125 C 47.421875 10.078125 47.324219 10.625 47.207031 11.132812 L 46.09375 11.132812 L 46.09375 11.894531 L 47.03125 11.894531 C 46.777344 12.890625 46.503906 13.75 46.171875 14.414062 L 46.347656 15.097656 L 48.105469 15.097656 L 48.105469 16.777344 C 47.441406 16.894531 46.757812 17.011719 46.015625 17.089844 L 46.113281 17.890625 C 46.796875 17.773438 47.460938 17.675781 48.105469 17.539062 L 48.105469 19.882812 L 48.847656 19.882812 L 48.847656 17.382812 L 49.921875 17.109375 L 49.921875 16.347656 C 49.589844 16.425781 49.238281 16.523438 48.847656 16.621094 L 48.847656 15.097656 L 49.882812 15.097656 L 49.882812 14.355469 L 48.847656 14.355469 L 48.847656 12.695312 Z M 51.425781 12.109375 L 51.425781 12.773438 L 54.648438 12.773438 L 54.648438 12.109375 L 51.425781 12.109375 C 51.992188 11.5625 52.539062 10.957031 53.066406 10.3125 C 53.925781 11.40625 54.882812 12.34375 55.9375 13.105469 L 56.367188 12.480469 C 55.351562 11.757812 54.355469 10.800781 53.359375 9.589844 L 52.792969 9.589844 C 51.875 10.703125 50.839844 11.699219 49.6875 12.539062 L 50.136719 13.222656 C 50.566406 12.871094 50.996094 12.5 51.425781 12.109375 Z M 52.207031 19.804688 C 52.753906 19.804688 53.046875 19.511719 53.046875 18.925781 L 53.046875 13.671875 L 50.390625 13.671875 L 50.390625 19.882812 L 51.09375 19.882812 L 51.09375 17.773438 L 52.363281 17.773438 L 52.363281 18.789062 C 52.363281 19.023438 52.226562 19.160156 51.992188 19.160156 L 51.484375 19.140625 L 51.660156 19.804688 Z M 51.09375 17.148438 L 51.09375 16.074219 L 52.363281 16.074219 L 52.363281 17.148438 Z M 51.09375 15.449219 L 51.09375 14.335938 L 52.363281 14.335938 L 52.363281 15.449219 Z M 53.710938 13.984375 L 53.710938 18.027344 L 54.355469 18.027344 L 54.355469 13.984375 Z M 54.941406 19.824219 C 55.488281 19.824219 55.761719 19.492188 55.761719 18.847656 L 55.761719 13.476562 L 55.058594 13.476562 L 55.058594 18.671875 C 55.058594 18.984375 54.941406 19.160156 54.6875 19.160156 C 54.414062 19.160156 54.121094 19.140625 53.828125 19.101562 L 53.984375 19.824219 Z M 54.941406 19.824219 "/>
<path style=" stroke:none;fill-rule:nonzero;fill:rgb(0%,0%,0%);fill-opacity:1;" d="M 61.914062 12.167969 C 61.191406 15.15625 59.628906 17.460938 57.207031 19.023438 L 57.695312 19.726562 C 60.058594 18.183594 61.621094 15.976562 62.363281 13.105469 C 62.421875 13.242188 62.460938 13.398438 62.539062 13.59375 C 63.691406 16.5625 65.175781 18.613281 67.011719 19.707031 L 67.519531 19.0625 C 65.722656 17.949219 64.316406 16.035156 63.261719 13.359375 C 62.578125 11.523438 61.71875 10.253906 60.722656 9.550781 L 60.058594 9.980469 C 60.761719 10.507812 61.386719 11.230469 61.914062 12.167969 Z M 61.914062 12.167969 "/>
</g>
</svg>
