<?xml version="1.0" encoding="UTF-8"?>
<svg xmlns="http://www.w3.org/2000/svg" xmlns:xlink="http://www.w3.org/1999/xlink" width="223pt" height="101pt" viewBox="0 0 223 101" version="1.1">
<g id="surface1">
<path style=" stroke:none;fill-rule:nonzero;fill:rgb(100%,100%,100%);fill-opacity:1;" d="M 23.75 99.523438 L 46.25 99.523438 L 46.25 77.023438 L 23.75 77.023438 Z M 23.75 99.523438 "/>
<path style="fill:none;stroke-width:1;stroke-linecap:round;stroke-linejoin:round;stroke:rgb(0%,0%,0%);stroke-opacity:1;stroke-miterlimit:10;" d="M 72 166.61875 L 90 166.61875 L 90 184.61875 L 72 184.61875 Z M 72 166.61875 " transform="matrix(1.25,0,0,1.25,-66.25,-131.25)"/>
<path style=" stroke:none;fill-rule:nonzero;fill:rgb(0%,0%,0%);fill-opacity:1;" d="M 32.398438 84.847656 L 32.398438 83.890625 L 37.613281 83.890625 L 37.613281 84.652344 C 37.105469 85.199219 36.597656 85.929688 36.089844 86.839844 C 35.582031 87.738281 35.191406 88.671875 34.917969 89.632812 C 34.722656 90.296875 34.597656 91.035156 34.546875 91.839844 L 33.53125 91.839844 C 33.542969 91.203125 33.667969 90.441406 33.902344 89.554688 C 34.136719 88.65625 34.472656 87.792969 34.917969 86.957031 C 35.371094 86.125 35.847656 85.421875 36.34375 84.847656 Z M 32.398438 84.847656 "/>
<path style=" stroke:none;fill-rule:nonzero;fill:rgb(69.803922%,85.098039%,100%);fill-opacity:1;" d="M 23.75 54.523438 L 46.25 54.523438 L 46.25 32.023438 L 23.75 32.023438 Z M 23.75 54.523438 "/>
<path style="fill:none;stroke-width:1;stroke-linecap:round;stroke-linejoin:round;stroke:rgb(0%,0%,0%);stroke-opacity:1;stroke-miterlimit:10;" d="M 72 130.61875 L 90 130.61875 L 90 148.61875 L 72 148.61875 Z M 72 130.61875 " transform="matrix(1.25,0,0,1.25,-66.25,-131.25)"/>
<path style=" stroke:none;fill-rule:nonzero;fill:rgb(0%,0%,0%);fill-opacity:1;" d="M 36.070312 46.839844 L 35.074219 46.839844 L 35.074219 40.53125 C 34.839844 40.765625 34.527344 41 34.136719 41.234375 C 33.746094 41.457031 33.398438 41.621094 33.101562 41.722656 L 33.101562 40.765625 C 33.648438 40.519531 34.128906 40.214844 34.546875 39.847656 C 34.960938 39.472656 35.253906 39.105469 35.425781 38.753906 L 36.070312 38.753906 Z M 36.070312 46.839844 "/>
<path style=" stroke:none;fill-rule:nonzero;fill:rgb(69.803922%,85.098039%,100%);fill-opacity:1;" d="M 23.75 77.023438 L 46.25 77.023438 L 46.25 54.523438 L 23.75 54.523438 Z M 23.75 77.023438 "/>
<path style="fill:none;stroke-width:1;stroke-linecap:round;stroke-linejoin:round;stroke:rgb(0%,0%,0%);stroke-opacity:1;stroke-miterlimit:10;" d="M 72 148.61875 L 90 148.61875 L 90 166.61875 L 72 166.61875 Z M 72 148.61875 " transform="matrix(1.25,0,0,1.25,-66.25,-131.25)"/>
<path style=" stroke:none;fill-rule:nonzero;fill:rgb(0%,0%,0%);fill-opacity:1;" d="M 35.503906 69.339844 L 35.503906 67.40625 L 32.007812 67.40625 L 32.007812 66.507812 L 35.679688 61.292969 L 36.5 61.292969 L 36.5 66.507812 L 37.59375 66.507812 L 37.59375 67.40625 L 36.5 67.40625 L 36.5 69.339844 Z M 35.503906 66.507812 L 35.503906 62.875 L 32.984375 66.507812 Z M 35.503906 66.507812 "/>
<path style=" stroke:none;fill-rule:nonzero;fill:rgb(100%,100%,100%);fill-opacity:1;" d="M 1.25 99.523438 L 23.75 99.523438 L 23.75 77.023438 L 1.25 77.023438 Z M 1.25 99.523438 "/>
<path style="fill:none;stroke-width:1;stroke-linecap:round;stroke-linejoin:round;stroke:rgb(0%,0%,0%);stroke-opacity:1;stroke-miterlimit:10;" d="M 54 166.61875 L 72 166.61875 L 72 184.61875 L 54 184.61875 Z M 54 166.61875 " transform="matrix(1.25,0,0,1.25,-66.25,-131.25)"/>
<path style=" stroke:none;fill-rule:nonzero;fill:rgb(0%,0%,0%);fill-opacity:1;" d="M 14.976562 85.765625 L 13.980469 85.84375 C 13.902344 85.453125 13.777344 85.167969 13.609375 84.984375 C 13.347656 84.710938 13.023438 84.574219 12.632812 84.574219 C 12.304688 84.574219 12.027344 84.660156 11.792969 84.828125 C 11.480469 85.0625 11.230469 85.394531 11.050781 85.824219 C 10.878906 86.253906 10.789062 86.875 10.777344 87.679688 C 11.011719 87.328125 11.296875 87.070312 11.636719 86.898438 C 11.988281 86.71875 12.351562 86.625 12.730469 86.625 C 13.394531 86.625 13.953125 86.867188 14.410156 87.347656 C 14.878906 87.832031 15.113281 88.457031 15.113281 89.222656 C 15.113281 89.730469 15 90.207031 14.78125 90.648438 C 14.558594 91.078125 14.257812 91.410156 13.882812 91.644531 C 13.503906 91.863281 13.074219 91.976562 12.59375 91.976562 C 11.773438 91.976562 11.101562 91.679688 10.582031 91.078125 C 10.058594 90.46875 9.800781 89.464844 9.800781 88.070312 C 9.800781 86.523438 10.085938 85.390625 10.660156 84.671875 C 11.152344 84.0625 11.832031 83.753906 12.691406 83.753906 C 13.316406 83.753906 13.828125 83.9375 14.234375 84.300781 C 14.636719 84.652344 14.882812 85.140625 14.976562 85.765625 Z M 10.933594 89.222656 C 10.933594 89.574219 11.003906 89.90625 11.148438 90.21875 C 11.289062 90.519531 11.492188 90.753906 11.753906 90.921875 C 12.011719 91.078125 12.285156 91.15625 12.574219 91.15625 C 12.988281 91.15625 13.347656 90.996094 13.648438 90.667969 C 13.945312 90.332031 14.097656 89.867188 14.097656 89.28125 C 14.097656 88.722656 13.945312 88.285156 13.648438 87.972656 C 13.359375 87.648438 12.988281 87.484375 12.535156 87.484375 C 12.089844 87.484375 11.714844 87.648438 11.402344 87.972656 C 11.089844 88.285156 10.933594 88.703125 10.933594 89.222656 Z M 10.933594 89.222656 "/>
<path style=" stroke:none;fill-rule:nonzero;fill:rgb(100%,100%,100%);fill-opacity:1;" d="M 46.25 77.023438 L 68.75 77.023438 L 68.75 54.523438 L 46.25 54.523438 Z M 46.25 77.023438 "/>
<path style="fill:none;stroke-width:1;stroke-linecap:round;stroke-linejoin:round;stroke:rgb(0%,0%,0%);stroke-opacity:1;stroke-miterlimit:10;" d="M 90 148.61875 L 108 148.61875 L 108 166.61875 L 90 166.61875 Z M 90 148.61875 " transform="matrix(1.25,0,0,1.25,-66.25,-131.25)"/>
<path style=" stroke:none;fill-rule:nonzero;fill:rgb(0%,0%,0%);fill-opacity:1;" d="M 54.839844 67.230469 L 55.875 67.132812 C 55.953125 67.640625 56.128906 68.027344 56.402344 68.285156 C 56.6875 68.535156 57.027344 68.65625 57.417969 68.65625 C 57.898438 68.65625 58.300781 68.480469 58.628906 68.128906 C 58.964844 67.765625 59.136719 67.289062 59.136719 66.703125 C 59.136719 66.132812 58.972656 65.683594 58.648438 65.355469 C 58.335938 65.03125 57.925781 64.867188 57.417969 64.867188 C 57.089844 64.867188 56.796875 64.945312 56.539062 65.101562 C 56.289062 65.246094 56.089844 65.429688 55.933594 65.648438 L 55.015625 65.53125 L 55.796875 61.390625 L 59.800781 61.390625 L 59.800781 62.347656 L 56.578125 62.347656 L 56.148438 64.496094 C 56.628906 64.171875 57.136719 64.007812 57.671875 64.007812 C 58.375 64.007812 58.964844 64.25 59.449219 64.730469 C 59.929688 65.214844 60.171875 65.839844 60.171875 66.605469 C 60.171875 67.335938 59.960938 67.96875 59.546875 68.5 C 59.023438 69.152344 58.316406 69.476562 57.417969 69.476562 C 56.6875 69.476562 56.089844 69.277344 55.621094 68.871094 C 55.164062 68.457031 54.902344 67.910156 54.839844 67.230469 Z M 54.839844 67.230469 "/>
<path style=" stroke:none;fill-rule:nonzero;fill:rgb(69.803922%,85.098039%,100%);fill-opacity:1;" d="M 1.25 77.023438 L 23.75 77.023438 L 23.75 54.523438 L 1.25 54.523438 Z M 1.25 77.023438 "/>
<path style="fill:none;stroke-width:1;stroke-linecap:round;stroke-linejoin:round;stroke:rgb(0%,0%,0%);stroke-opacity:1;stroke-miterlimit:10;" d="M 54 148.61875 L 72 148.61875 L 72 166.61875 L 54 166.61875 Z M 54 148.61875 " transform="matrix(1.25,0,0,1.25,-66.25,-131.25)"/>
<path style=" stroke:none;fill-rule:nonzero;fill:rgb(0%,0%,0%);fill-opacity:1;" d="M 9.839844 67.210938 L 10.835938 67.074219 C 10.953125 67.636719 11.140625 68.039062 11.402344 68.285156 C 11.675781 68.535156 12.011719 68.65625 12.417969 68.65625 C 12.871094 68.65625 13.257812 68.5 13.570312 68.1875 C 13.894531 67.863281 14.058594 67.460938 14.058594 66.976562 C 14.058594 66.523438 13.90625 66.152344 13.609375 65.863281 C 13.320312 65.566406 12.949219 65.414062 12.496094 65.414062 C 12.300781 65.414062 12.066406 65.453125 11.792969 65.53125 L 11.910156 64.652344 C 11.972656 64.667969 12.027344 64.671875 12.066406 64.671875 C 12.480469 64.671875 12.859375 64.5625 13.199219 64.339844 C 13.535156 64.121094 13.707031 63.78125 13.707031 63.324219 C 13.707031 62.960938 13.582031 62.660156 13.335938 62.425781 C 13.085938 62.191406 12.769531 62.074219 12.378906 62.074219 C 12 62.074219 11.679688 62.199219 11.421875 62.445312 C 11.171875 62.679688 11.011719 63.039062 10.933594 63.519531 L 9.9375 63.34375 C 10.066406 62.679688 10.339844 62.167969 10.757812 61.800781 C 11.1875 61.4375 11.71875 61.253906 12.359375 61.253906 C 12.800781 61.253906 13.203125 61.351562 13.570312 61.546875 C 13.945312 61.730469 14.234375 61.984375 14.429688 62.308594 C 14.625 62.636719 14.722656 62.980469 14.722656 63.34375 C 14.722656 63.695312 14.625 64.015625 14.429688 64.300781 C 14.246094 64.589844 13.972656 64.816406 13.609375 64.984375 C 14.089844 65.089844 14.460938 65.316406 14.722656 65.667969 C 14.980469 66.007812 15.113281 66.4375 15.113281 66.957031 C 15.113281 67.660156 14.851562 68.261719 14.332031 68.753906 C 13.824219 69.238281 13.179688 69.476562 12.398438 69.476562 C 11.695312 69.476562 11.109375 69.269531 10.640625 68.851562 C 10.171875 68.4375 9.902344 67.890625 9.839844 67.210938 Z M 9.839844 67.210938 "/>
<path style=" stroke:none;fill-rule:nonzero;fill:rgb(100%,100%,100%);fill-opacity:1;" d="M 46.25 99.523438 L 68.75 99.523438 L 68.75 77.023438 L 46.25 77.023438 Z M 46.25 99.523438 "/>
<path style="fill:none;stroke-width:1;stroke-linecap:round;stroke-linejoin:round;stroke:rgb(0%,0%,0%);stroke-opacity:1;stroke-miterlimit:10;" d="M 90 166.61875 L 108 166.61875 L 108 184.61875 L 90 184.61875 Z M 90 166.61875 " transform="matrix(1.25,0,0,1.25,-66.25,-131.25)"/>
<path style=" stroke:none;fill-rule:nonzero;fill:rgb(0%,0%,0%);fill-opacity:1;" d="M 56.363281 87.464844 C 55.945312 87.324219 55.640625 87.113281 55.445312 86.839844 C 55.25 86.554688 55.152344 86.214844 55.152344 85.824219 C 55.152344 85.238281 55.359375 84.75 55.777344 84.359375 C 56.207031 83.957031 56.765625 83.753906 57.457031 83.753906 C 58.160156 83.753906 58.726562 83.964844 59.15625 84.378906 C 59.585938 84.785156 59.800781 85.277344 59.800781 85.863281 C 59.800781 86.230469 59.703125 86.554688 59.507812 86.839844 C 59.3125 87.113281 59.011719 87.324219 58.609375 87.464844 C 59.101562 87.636719 59.480469 87.902344 59.742188 88.265625 C 60 88.617188 60.132812 89.042969 60.132812 89.535156 C 60.132812 90.226562 59.882812 90.804688 59.390625 91.273438 C 58.90625 91.742188 58.269531 91.976562 57.476562 91.976562 C 56.679688 91.976562 56.035156 91.742188 55.542969 91.273438 C 55.058594 90.804688 54.820312 90.21875 54.820312 89.515625 C 54.820312 88.996094 54.949219 88.558594 55.210938 88.207031 C 55.484375 87.84375 55.867188 87.597656 56.363281 87.464844 Z M 56.167969 85.804688 C 56.167969 86.183594 56.285156 86.496094 56.519531 86.742188 C 56.765625 86.976562 57.085938 87.09375 57.476562 87.09375 C 57.867188 87.09375 58.179688 86.976562 58.414062 86.742188 C 58.660156 86.496094 58.785156 86.195312 58.785156 85.84375 C 58.785156 85.492188 58.660156 85.195312 58.414062 84.945312 C 58.164062 84.699219 57.851562 84.574219 57.476562 84.574219 C 57.097656 84.574219 56.785156 84.699219 56.539062 84.945312 C 56.289062 85.179688 56.167969 85.46875 56.167969 85.804688 Z M 55.835938 89.515625 C 55.835938 89.804688 55.898438 90.078125 56.03125 90.335938 C 56.171875 90.597656 56.375 90.800781 56.636719 90.941406 C 56.894531 91.085938 57.183594 91.15625 57.496094 91.15625 C 57.964844 91.15625 58.347656 91.007812 58.648438 90.707031 C 58.960938 90.410156 59.117188 90.023438 59.117188 89.554688 C 59.117188 89.074219 58.960938 88.675781 58.648438 88.363281 C 58.335938 88.050781 57.9375 87.894531 57.457031 87.894531 C 56.988281 87.894531 56.597656 88.050781 56.285156 88.363281 C 55.984375 88.675781 55.835938 89.0625 55.835938 89.515625 Z M 55.835938 89.515625 "/>
<path style=" stroke:none;fill-rule:nonzero;fill:rgb(100%,100%,100%);fill-opacity:1;" d="M 46.25 54.523438 L 68.75 54.523438 L 68.75 32.023438 L 46.25 32.023438 Z M 46.25 54.523438 "/>
<path style="fill:none;stroke-width:1;stroke-linecap:round;stroke-linejoin:round;stroke:rgb(0%,0%,0%);stroke-opacity:1;stroke-miterlimit:10;" d="M 90 130.61875 L 108 130.61875 L 108 148.61875 L 90 148.61875 Z M 90 130.61875 " transform="matrix(1.25,0,0,1.25,-66.25,-131.25)"/>
<path style=" stroke:none;fill-rule:nonzero;fill:rgb(0%,0%,0%);fill-opacity:1;" d="M 60.035156 45.882812 L 60.035156 46.839844 L 54.703125 46.839844 C 54.703125 46.605469 54.742188 46.378906 54.820312 46.15625 C 54.960938 45.792969 55.183594 45.433594 55.484375 45.082031 C 55.78125 44.730469 56.210938 44.328125 56.773438 43.871094 C 57.644531 43.144531 58.230469 42.570312 58.53125 42.152344 C 58.84375 41.738281 59 41.339844 59 40.960938 C 59 40.570312 58.855469 40.246094 58.570312 39.984375 C 58.296875 39.710938 57.9375 39.574219 57.496094 39.574219 C 57.011719 39.574219 56.628906 39.71875 56.34375 40.003906 C 56.054688 40.292969 55.914062 40.6875 55.914062 41.195312 L 54.898438 41.078125 C 54.960938 40.324219 55.222656 39.75 55.679688 39.359375 C 56.132812 38.957031 56.746094 38.753906 57.515625 38.753906 C 58.28125 38.753906 58.886719 38.96875 59.332031 39.398438 C 59.785156 39.828125 60.015625 40.355469 60.015625 40.980469 C 60.015625 41.308594 59.949219 41.625 59.820312 41.9375 C 59.6875 42.25 59.46875 42.582031 59.15625 42.933594 C 58.855469 43.273438 58.355469 43.742188 57.652344 44.339844 C 57.050781 44.835938 56.667969 45.175781 56.5 45.355469 C 56.328125 45.539062 56.191406 45.714844 56.089844 45.882812 Z M 60.035156 45.882812 "/>
<path style=" stroke:none;fill-rule:nonzero;fill:rgb(69.803922%,85.098039%,100%);fill-opacity:1;" d="M 1.25 54.523438 L 23.75 54.523438 L 23.75 32.023438 L 1.25 32.023438 Z M 1.25 54.523438 "/>
<path style="fill:none;stroke-width:1;stroke-linecap:round;stroke-linejoin:round;stroke:rgb(0%,0%,0%);stroke-opacity:1;stroke-miterlimit:10;" d="M 54 130.61875 L 72 130.61875 L 72 148.61875 L 54 148.61875 Z M 54 130.61875 " transform="matrix(1.25,0,0,1.25,-66.25,-131.25)"/>
<path style=" stroke:none;fill-rule:nonzero;fill:rgb(0%,0%,0%);fill-opacity:1;" d="M 9.839844 42.875 C 9.839844 41.925781 9.9375 41.15625 10.132812 40.570312 C 10.328125 39.984375 10.613281 39.535156 10.992188 39.222656 C 11.382812 38.910156 11.871094 38.753906 12.457031 38.753906 C 12.898438 38.753906 13.28125 38.847656 13.609375 39.027344 C 13.933594 39.199219 14.199219 39.445312 14.410156 39.769531 C 14.617188 40.097656 14.78125 40.492188 14.898438 40.960938 C 15.027344 41.429688 15.09375 42.070312 15.09375 42.875 C 15.09375 43.8125 14.996094 44.574219 14.800781 45.160156 C 14.605469 45.734375 14.3125 46.183594 13.921875 46.507812 C 13.542969 46.820312 13.054688 46.976562 12.457031 46.976562 C 11.6875 46.976562 11.082031 46.699219 10.640625 46.136719 C 10.105469 45.472656 9.839844 44.386719 9.839844 42.875 Z M 10.855469 42.875 C 10.855469 44.191406 11.003906 45.070312 11.304688 45.511719 C 11.617188 45.941406 12 46.15625 12.457031 46.15625 C 12.910156 46.15625 13.296875 45.941406 13.609375 45.511719 C 13.921875 45.070312 14.078125 44.191406 14.078125 42.875 C 14.078125 41.546875 13.921875 40.667969 13.609375 40.238281 C 13.296875 39.796875 12.910156 39.574219 12.457031 39.574219 C 12 39.574219 11.636719 39.765625 11.363281 40.140625 C 11.023438 40.636719 10.855469 41.546875 10.855469 42.875 Z M 10.855469 42.875 "/>
<path style=" stroke:none;fill-rule:nonzero;fill:rgb(100%,100%,100%);fill-opacity:1;" d="M 176.765625 88.273438 L 199.265625 88.273438 L 199.265625 65.773438 L 176.765625 65.773438 Z M 176.765625 88.273438 "/>
<path style="fill:none;stroke-width:1;stroke-linecap:round;stroke-linejoin:round;stroke:rgb(0%,0%,0%);stroke-opacity:1;stroke-miterlimit:10;" d="M 194.4125 157.61875 L 212.4125 157.61875 L 212.4125 175.61875 L 194.4125 175.61875 Z M 194.4125 157.61875 " transform="matrix(1.25,0,0,1.25,-66.25,-131.25)"/>
<path style=" stroke:none;fill-rule:nonzero;fill:rgb(0%,0%,0%);fill-opacity:1;" d="M 185.417969 73.597656 L 185.417969 72.640625 L 190.632812 72.640625 L 190.632812 73.402344 C 190.125 73.949219 189.617188 74.679688 189.109375 75.589844 C 188.601562 76.488281 188.210938 77.421875 187.9375 78.382812 C 187.742188 79.046875 187.613281 79.785156 187.566406 80.589844 L 186.550781 80.589844 C 186.558594 79.953125 186.6875 79.191406 186.921875 78.304688 C 187.15625 77.40625 187.492188 76.542969 187.9375 75.707031 C 188.390625 74.875 188.863281 74.171875 189.363281 73.597656 Z M 185.417969 73.597656 "/>
<path style=" stroke:none;fill-rule:nonzero;fill:rgb(100%,100%,100%);fill-opacity:1;" d="M 199.265625 88.273438 L 221.765625 88.273438 L 221.765625 65.773438 L 199.265625 65.773438 Z M 199.265625 88.273438 "/>
<path style="fill:none;stroke-width:1;stroke-linecap:round;stroke-linejoin:round;stroke:rgb(0%,0%,0%);stroke-opacity:1;stroke-miterlimit:10;" d="M 212.4125 157.61875 L 230.4125 157.61875 L 230.4125 175.61875 L 212.4125 175.61875 Z M 212.4125 157.61875 " transform="matrix(1.25,0,0,1.25,-66.25,-131.25)"/>
<path style=" stroke:none;fill-rule:nonzero;fill:rgb(0%,0%,0%);fill-opacity:1;" d="M 209.382812 76.214844 C 208.960938 76.074219 208.660156 75.863281 208.464844 75.589844 C 208.269531 75.304688 208.171875 74.964844 208.171875 74.574219 C 208.171875 73.988281 208.375 73.5 208.796875 73.109375 C 209.226562 72.707031 209.78125 72.503906 210.476562 72.503906 C 211.179688 72.503906 211.746094 72.714844 212.175781 73.128906 C 212.605469 73.535156 212.820312 74.027344 212.820312 74.613281 C 212.820312 74.980469 212.722656 75.304688 212.527344 75.589844 C 212.332031 75.863281 212.027344 76.074219 211.628906 76.214844 C 212.121094 76.386719 212.496094 76.652344 212.761719 77.015625 C 213.019531 77.367188 213.152344 77.792969 213.152344 78.285156 C 213.152344 78.976562 212.902344 79.554688 212.410156 80.023438 C 211.925781 80.492188 211.285156 80.726562 210.496094 80.726562 C 209.699219 80.726562 209.054688 80.492188 208.5625 80.023438 C 208.078125 79.554688 207.839844 78.96875 207.839844 78.265625 C 207.839844 77.746094 207.964844 77.308594 208.230469 76.957031 C 208.503906 76.59375 208.882812 76.347656 209.382812 76.214844 Z M 209.1875 74.554688 C 209.1875 74.933594 209.304688 75.246094 209.539062 75.492188 C 209.78125 75.726562 210.105469 75.84375 210.496094 75.84375 C 210.886719 75.84375 211.199219 75.726562 211.433594 75.492188 C 211.675781 75.246094 211.804688 74.945312 211.804688 74.59375 C 211.804688 74.242188 211.675781 73.945312 211.433594 73.695312 C 211.183594 73.449219 210.871094 73.324219 210.496094 73.324219 C 210.113281 73.324219 209.800781 73.449219 209.558594 73.695312 C 209.308594 73.929688 209.1875 74.21875 209.1875 74.554688 Z M 208.855469 78.265625 C 208.855469 78.554688 208.917969 78.828125 209.050781 79.085938 C 209.191406 79.347656 209.390625 79.550781 209.65625 79.691406 C 209.914062 79.835938 210.203125 79.90625 210.515625 79.90625 C 210.984375 79.90625 211.363281 79.757812 211.667969 79.457031 C 211.980469 79.160156 212.136719 78.773438 212.136719 78.304688 C 212.136719 77.824219 211.980469 77.425781 211.667969 77.113281 C 211.355469 76.800781 210.953125 76.644531 210.476562 76.644531 C 210.007812 76.644531 209.617188 76.800781 209.304688 77.113281 C 209 77.425781 208.855469 77.8125 208.855469 78.265625 Z M 208.855469 78.265625 "/>
<path style=" stroke:none;fill-rule:nonzero;fill:rgb(100%,100%,100%);fill-opacity:1;" d="M 199.265625 65.773438 L 221.765625 65.773438 L 221.765625 43.273438 L 199.265625 43.273438 Z M 199.265625 65.773438 "/>
<path style="fill:none;stroke-width:1;stroke-linecap:round;stroke-linejoin:round;stroke:rgb(0%,0%,0%);stroke-opacity:1;stroke-miterlimit:10;" d="M 212.4125 139.61875 L 230.4125 139.61875 L 230.4125 157.61875 L 212.4125 157.61875 Z M 212.4125 139.61875 " transform="matrix(1.25,0,0,1.25,-66.25,-131.25)"/>
<path style=" stroke:none;fill-rule:nonzero;fill:rgb(0%,0%,0%);fill-opacity:1;" d="M 207.859375 55.980469 L 208.894531 55.882812 C 208.972656 56.390625 209.148438 56.777344 209.421875 57.035156 C 209.703125 57.285156 210.046875 57.40625 210.4375 57.40625 C 210.914062 57.40625 211.320312 57.230469 211.648438 56.878906 C 211.984375 56.515625 212.15625 56.039062 212.15625 55.453125 C 212.15625 54.882812 211.988281 54.433594 211.667969 54.105469 C 211.355469 53.78125 210.945312 53.617188 210.4375 53.617188 C 210.109375 53.617188 209.816406 53.695312 209.558594 53.851562 C 209.308594 53.996094 209.109375 54.179688 208.953125 54.398438 L 208.035156 54.28125 L 208.816406 50.140625 L 212.820312 50.140625 L 212.820312 51.097656 L 209.597656 51.097656 L 209.167969 53.246094 C 209.644531 52.921875 210.152344 52.757812 210.691406 52.757812 C 211.394531 52.757812 211.984375 53 212.46875 53.480469 C 212.945312 53.964844 213.191406 54.589844 213.191406 55.355469 C 213.191406 56.085938 212.980469 56.71875 212.566406 57.25 C 212.042969 57.902344 211.335938 58.226562 210.4375 58.226562 C 209.703125 58.226562 209.109375 58.027344 208.640625 57.621094 C 208.179688 57.207031 207.921875 56.660156 207.859375 55.980469 Z M 207.859375 55.980469 "/>
<path style=" stroke:none;fill-rule:nonzero;fill:rgb(69.803922%,85.098039%,100%);fill-opacity:1;" d="M 176.765625 65.773438 L 199.265625 65.773438 L 199.265625 43.273438 L 176.765625 43.273438 Z M 176.765625 65.773438 "/>
<path style="fill:none;stroke-width:1;stroke-linecap:round;stroke-linejoin:round;stroke:rgb(0%,0%,0%);stroke-opacity:1;stroke-miterlimit:10;" d="M 194.4125 139.61875 L 212.4125 139.61875 L 212.4125 157.61875 L 194.4125 157.61875 Z M 194.4125 139.61875 " transform="matrix(1.25,0,0,1.25,-66.25,-131.25)"/>
<path style=" stroke:none;fill-rule:nonzero;fill:rgb(0%,0%,0%);fill-opacity:1;" d="M 188.523438 58.089844 L 188.523438 56.15625 L 185.027344 56.15625 L 185.027344 55.257812 L 188.699219 50.042969 L 189.519531 50.042969 L 189.519531 55.257812 L 190.613281 55.257812 L 190.613281 56.15625 L 189.519531 56.15625 L 189.519531 58.089844 Z M 188.523438 55.257812 L 188.523438 51.625 L 186.003906 55.257812 Z M 188.523438 55.257812 "/>
<path style=" stroke:none;fill-rule:nonzero;fill:rgb(100%,100%,100%);fill-opacity:1;" d="M 89.375 82.5 L 156.875 82.5 L 156.875 48.75 L 89.375 48.75 Z M 89.375 82.5 "/>
<path style="fill:none;stroke-width:1;stroke-linecap:round;stroke-linejoin:round;stroke:rgb(0%,0%,0%);stroke-opacity:1;stroke-miterlimit:10;" d="M 124.5 144 L 178.5 144 L 178.5 171 L 124.5 171 Z M 124.5 144 " transform="matrix(1.25,0,0,1.25,-66.25,-131.25)"/>
<path style=" stroke:none;fill-rule:nonzero;fill:rgb(0%,0%,0%);fill-opacity:1;" d="M 103.78125 60.917969 L 103.78125 61.875 L 98.449219 61.875 C 98.449219 61.640625 98.488281 61.414062 98.566406 61.191406 C 98.707031 60.828125 98.929688 60.46875 99.230469 60.117188 C 99.527344 59.765625 99.957031 59.367188 100.519531 58.90625 C 101.390625 58.179688 101.976562 57.609375 102.277344 57.1875 C 102.589844 56.773438 102.746094 56.375 102.746094 55.996094 C 102.746094 55.605469 102.601562 55.28125 102.316406 55.019531 C 102.042969 54.746094 101.683594 54.609375 101.242188 54.609375 C 100.757812 54.609375 100.375 54.757812 100.089844 55.039062 C 99.800781 55.328125 99.660156 55.722656 99.660156 56.230469 L 98.644531 56.113281 C 98.707031 55.359375 98.96875 54.785156 99.425781 54.394531 C 99.878906 53.992188 100.492188 53.789062 101.261719 53.789062 C 102.027344 53.789062 102.632812 54.003906 103.078125 54.433594 C 103.53125 54.863281 103.761719 55.390625 103.761719 56.015625 C 103.761719 56.34375 103.695312 56.660156 103.566406 56.972656 C 103.433594 57.285156 103.214844 57.617188 102.902344 57.96875 C 102.601562 58.3125 102.101562 58.78125 101.398438 59.375 C 100.796875 59.875 100.414062 60.210938 100.246094 60.390625 C 100.074219 60.578125 99.9375 60.75 99.835938 60.917969 Z M 103.78125 60.917969 "/>
<path style=" stroke:none;fill-rule:nonzero;fill:rgb(0%,0%,0%);fill-opacity:1;" d="M 107.578125 61.875 L 109.707031 58.847656 L 107.734375 56.035156 L 108.984375 56.035156 L 109.882812 57.402344 C 110.039062 57.664062 110.164062 57.886719 110.273438 58.066406 C 110.4375 57.820312 110.589844 57.609375 110.722656 57.421875 L 111.699219 56.035156 L 112.890625 56.035156 L 110.878906 58.789062 L 113.046875 61.875 L 111.835938 61.875 L 110.625 60.058594 L 110.3125 59.570312 L 108.789062 61.875 Z M 107.578125 61.875 "/>
<path style=" stroke:none;fill-rule:nonzero;fill:rgb(0%,0%,0%);fill-opacity:1;" d="M 121.914062 60.917969 L 121.914062 61.875 L 116.582031 61.875 C 116.582031 61.640625 116.621094 61.414062 116.699219 61.191406 C 116.839844 60.828125 117.0625 60.46875 117.363281 60.117188 C 117.660156 59.765625 118.089844 59.367188 118.652344 58.90625 C 119.523438 58.179688 120.109375 57.609375 120.410156 57.1875 C 120.722656 56.773438 120.878906 56.375 120.878906 55.996094 C 120.878906 55.605469 120.734375 55.28125 120.449219 55.019531 C 120.175781 54.746094 119.816406 54.609375 119.375 54.609375 C 118.890625 54.609375 118.507812 54.757812 118.222656 55.039062 C 117.933594 55.328125 117.792969 55.722656 117.792969 56.230469 L 116.777344 56.113281 C 116.839844 55.359375 117.101562 54.785156 117.558594 54.394531 C 118.011719 53.992188 118.625 53.789062 119.394531 53.789062 C 120.160156 53.789062 120.765625 54.003906 121.210938 54.433594 C 121.664062 54.863281 121.894531 55.390625 121.894531 56.015625 C 121.894531 56.34375 121.828125 56.660156 121.699219 56.972656 C 121.566406 57.285156 121.347656 57.617188 121.035156 57.96875 C 120.734375 58.3125 120.234375 58.78125 119.53125 59.375 C 118.929688 59.875 118.546875 60.210938 118.378906 60.390625 C 118.207031 60.578125 118.070312 60.75 117.96875 60.917969 Z M 121.914062 60.917969 "/>
<path style=" stroke:none;fill-rule:nonzero;fill:rgb(0%,0%,0%);fill-opacity:1;" d="M 126.316406 57.070312 L 126.316406 57.714844 L 127.390625 57.714844 L 127.390625 61.621094 L 126.335938 61.660156 L 126.433594 62.363281 C 128.015625 62.265625 129.324219 62.148438 130.398438 62.03125 L 130.398438 63.027344 L 131.179688 63.027344 L 131.179688 61.933594 C 131.394531 61.894531 131.628906 61.855469 131.824219 61.816406 L 131.824219 61.171875 C 131.628906 61.210938 131.394531 61.25 131.179688 61.269531 L 131.179688 57.714844 L 136.238281 57.714844 L 136.238281 57.070312 Z M 128.113281 61.582031 L 128.113281 60.605469 L 130.398438 60.605469 L 130.398438 61.386719 C 129.714844 61.464844 128.953125 61.523438 128.113281 61.582031 Z M 128.113281 60.019531 L 128.113281 59.179688 L 130.398438 59.179688 L 130.398438 60.019531 Z M 128.113281 58.574219 L 128.113281 57.714844 L 130.398438 57.714844 L 130.398438 58.574219 Z M 127.742188 53.085938 L 127.742188 56.328125 L 134.851562 56.328125 L 134.851562 53.085938 Z M 134.070312 55.742188 L 128.503906 55.742188 L 128.503906 54.980469 L 134.070312 54.980469 Z M 128.503906 54.414062 L 128.503906 53.691406 L 134.070312 53.691406 L 134.070312 54.414062 Z M 132.117188 59.140625 C 132.351562 59.960938 132.761719 60.703125 133.386719 61.347656 C 132.917969 61.757812 132.332031 62.089844 131.648438 62.382812 L 132.058594 63.007812 C 132.800781 62.695312 133.425781 62.304688 133.953125 61.855469 C 134.460938 62.285156 135.085938 62.65625 135.828125 63.007812 L 136.238281 62.34375 C 135.535156 62.050781 134.96875 61.71875 134.460938 61.347656 C 135.007812 60.722656 135.378906 59.980469 135.59375 59.101562 L 135.59375 58.476562 L 131.765625 58.476562 L 131.765625 59.140625 Z M 133.894531 60.859375 C 133.367188 60.351562 133.015625 59.785156 132.820312 59.140625 L 134.871094 59.140625 C 134.675781 59.765625 134.34375 60.351562 133.894531 60.859375 Z M 133.894531 60.859375 "/>
<path style=" stroke:none;fill-rule:nonzero;fill:rgb(0%,0%,0%);fill-opacity:1;" d="M 137.566406 55.644531 L 137.566406 56.425781 L 141.804688 56.425781 C 141.21875 59.199219 139.734375 61.171875 137.351562 62.363281 L 137.859375 63.027344 C 140.242188 61.777344 141.804688 59.785156 142.488281 57.050781 C 143.347656 59.609375 144.890625 61.5625 147.15625 62.949219 L 147.664062 62.304688 C 145.359375 60.9375 143.796875 58.964844 143.015625 56.425781 L 147.449219 56.425781 L 147.449219 55.644531 L 142.78125 55.644531 C 142.859375 54.941406 142.917969 54.21875 142.917969 53.417969 L 142.917969 52.695312 L 142.097656 52.695312 L 142.097656 53.613281 C 142.078125 54.316406 142.039062 54.980469 141.941406 55.644531 Z M 137.566406 55.644531 "/>
<path style=" stroke:none;fill-rule:nonzero;fill:rgb(0%,0%,0%);fill-opacity:1;" d="M 111.40625 78.046875 L 111.40625 70.195312 L 116.757812 70.195312 L 116.757812 69.414062 L 110.585938 69.414062 L 110.585938 78.867188 L 116.855469 78.867188 L 116.855469 78.046875 Z M 107.617188 69.140625 L 107.050781 69.707031 C 107.988281 70.3125 108.710938 70.878906 109.21875 71.425781 L 109.785156 70.839844 C 109.199219 70.292969 108.496094 69.707031 107.617188 69.140625 Z M 107.402344 71.894531 L 106.816406 72.460938 C 107.695312 73.046875 108.359375 73.59375 108.867188 74.121094 L 109.453125 73.535156 C 108.886719 72.988281 108.203125 72.441406 107.402344 71.894531 Z M 108.730469 75.214844 C 108.242188 76.445312 107.636719 77.65625 106.972656 78.828125 L 107.792969 79.199219 C 108.417969 78.066406 108.964844 76.816406 109.492188 75.507812 Z M 108.730469 75.214844 "/>
<path style=" stroke:none;fill-rule:nonzero;fill:rgb(0%,0%,0%);fill-opacity:1;" d="M 122.792969 75.332031 L 122.792969 79.21875 L 123.535156 79.21875 L 123.535156 75.253906 L 124.140625 75.15625 C 124.570312 76.835938 125.742188 78.164062 127.65625 79.140625 L 128.066406 78.457031 C 127.207031 78.066406 126.484375 77.597656 125.9375 77.050781 C 126.582031 76.660156 127.128906 76.289062 127.539062 75.917969 L 127.109375 75.351562 C 126.679688 75.761719 126.132812 76.152344 125.488281 76.542969 C 125.15625 76.09375 124.902344 75.585938 124.765625 75.039062 C 125.527344 74.882812 126.230469 74.6875 126.875 74.433594 L 126.503906 73.808594 C 124.550781 74.472656 122.050781 74.824219 119.0625 74.824219 L 119.296875 75.507812 C 120.566406 75.507812 121.738281 75.449219 122.792969 75.332031 Z M 118.378906 69.355469 L 118.378906 70 L 119.238281 70 L 119.238281 73.261719 C 118.867188 73.28125 118.515625 73.320312 118.125 73.359375 L 118.203125 74.023438 C 119.550781 73.925781 120.820312 73.769531 121.972656 73.613281 L 121.972656 74.238281 L 122.695312 74.238281 L 122.695312 73.515625 C 122.949219 73.476562 123.203125 73.4375 123.476562 73.398438 L 123.476562 72.773438 C 123.222656 72.8125 122.949219 72.851562 122.695312 72.910156 L 122.695312 70 L 123.476562 70 L 123.476562 69.355469 Z M 119.941406 73.203125 L 119.941406 72.441406 L 121.972656 72.441406 L 121.972656 72.988281 C 121.347656 73.066406 120.664062 73.144531 119.941406 73.203125 Z M 119.941406 71.875 L 119.941406 71.230469 L 121.972656 71.230469 L 121.972656 71.875 Z M 119.941406 70.664062 L 119.941406 70 L 121.972656 70 L 121.972656 70.664062 Z M 124.238281 70.78125 L 123.75 71.269531 C 124.355469 71.660156 124.941406 72.070312 125.449219 72.441406 C 124.941406 72.910156 124.335938 73.261719 123.671875 73.476562 L 123.984375 74.140625 C 124.765625 73.867188 125.449219 73.457031 126.035156 72.890625 C 126.523438 73.261719 126.953125 73.632812 127.324219 74.023438 L 127.851562 73.496094 C 127.460938 73.125 127.011719 72.753906 126.503906 72.363281 C 126.953125 71.796875 127.363281 71.113281 127.675781 70.292969 L 127.675781 69.707031 L 123.808594 69.707031 L 123.808594 70.390625 L 126.855469 70.390625 C 126.582031 70.957031 126.289062 71.484375 125.917969 71.933594 C 125.410156 71.542969 124.84375 71.171875 124.238281 70.78125 Z M 120.800781 75.585938 C 120.488281 75.859375 120.136719 76.074219 119.765625 76.289062 C 119.316406 76.503906 118.847656 76.679688 118.300781 76.816406 L 118.691406 77.441406 C 119.335938 77.207031 119.882812 76.992188 120.292969 76.757812 C 120.664062 76.542969 121.035156 76.289062 121.40625 75.957031 Z M 121.679688 76.816406 C 121.25 77.167969 120.800781 77.480469 120.3125 77.734375 C 119.746094 78.027344 119.140625 78.261719 118.4375 78.4375 L 118.828125 79.082031 C 119.667969 78.789062 120.332031 78.515625 120.859375 78.222656 C 121.328125 77.949219 121.816406 77.617188 122.285156 77.1875 Z M 121.679688 76.816406 "/>
<path style=" stroke:none;fill-rule:nonzero;fill:rgb(0%,0%,0%);fill-opacity:1;" d="M 132.402344 73.242188 L 132.402344 73.964844 L 138.496094 73.964844 L 138.496094 73.242188 Z M 131.601562 75.078125 L 131.601562 75.820312 L 134.0625 75.820312 C 133.28125 77.089844 132.617188 77.871094 132.128906 78.164062 C 132.070312 78.183594 132.03125 78.222656 131.953125 78.242188 L 132.128906 78.925781 C 134.257812 78.789062 136.210938 78.59375 137.988281 78.359375 C 138.222656 78.632812 138.417969 78.925781 138.613281 79.21875 L 139.257812 78.769531 C 138.769531 78.046875 138.046875 77.1875 137.128906 76.210938 L 136.523438 76.582031 C 136.855469 76.972656 137.1875 77.34375 137.5 77.714844 C 136.054688 77.929688 134.589844 78.085938 133.105469 78.183594 C 133.632812 77.714844 134.238281 76.914062 134.921875 75.820312 L 139.238281 75.820312 L 139.238281 75.078125 Z M 137.871094 70.136719 L 137.871094 71.445312 L 131.25 71.445312 L 131.25 70.136719 Z M 131.25 72.167969 L 138.652344 72.167969 L 138.652344 69.375 L 130.46875 69.375 L 130.46875 73.105469 C 130.449219 75.371094 130.058594 77.207031 129.277344 78.632812 L 129.863281 79.179688 C 130.78125 77.480469 131.25 75.449219 131.25 73.105469 Z M 131.25 72.167969 "/>
<path style=" stroke:none;fill-rule:nonzero;fill:rgb(0%,0%,0%);fill-opacity:1;" d="M 191.328125 12.695312 L 191.328125 14.355469 L 190.214844 14.355469 C 190.488281 13.632812 190.761719 12.8125 190.996094 11.894531 L 193.164062 11.894531 L 193.164062 11.132812 L 191.191406 11.132812 C 191.289062 10.683594 191.386719 10.195312 191.503906 9.6875 L 190.761719 9.53125 C 190.644531 10.078125 190.546875 10.625 190.429688 11.132812 L 189.316406 11.132812 L 189.316406 11.894531 L 190.253906 11.894531 C 190 12.890625 189.726562 13.75 189.394531 14.414062 L 189.570312 15.097656 L 191.328125 15.097656 L 191.328125 16.777344 C 190.664062 16.894531 189.980469 17.011719 189.238281 17.089844 L 189.335938 17.890625 C 190.019531 17.773438 190.683594 17.675781 191.328125 17.539062 L 191.328125 19.882812 L 192.070312 19.882812 L 192.070312 17.382812 L 193.144531 17.109375 L 193.144531 16.347656 C 192.8125 16.425781 192.460938 16.523438 192.070312 16.621094 L 192.070312 15.097656 L 193.105469 15.097656 L 193.105469 14.355469 L 192.070312 14.355469 L 192.070312 12.695312 Z M 194.648438 12.109375 L 194.648438 12.773438 L 197.871094 12.773438 L 197.871094 12.109375 L 194.648438 12.109375 C 195.214844 11.5625 195.761719 10.957031 196.289062 10.3125 C 197.148438 11.40625 198.105469 12.34375 199.160156 13.105469 L 199.589844 12.480469 C 198.574219 11.757812 197.578125 10.800781 196.582031 9.589844 L 196.015625 9.589844 C 195.097656 10.703125 194.0625 11.699219 192.910156 12.539062 L 193.359375 13.222656 C 193.789062 12.871094 194.21875 12.5 194.648438 12.109375 Z M 195.429688 19.804688 C 195.976562 19.804688 196.269531 19.511719 196.269531 18.925781 L 196.269531 13.671875 L 193.613281 13.671875 L 193.613281 19.882812 L 194.316406 19.882812 L 194.316406 17.773438 L 195.585938 17.773438 L 195.585938 18.789062 C 195.585938 19.023438 195.449219 19.160156 195.214844 19.160156 L 194.707031 19.140625 L 194.882812 19.804688 Z M 194.316406 17.148438 L 194.316406 16.074219 L 195.585938 16.074219 L 195.585938 17.148438 Z M 194.316406 15.449219 L 194.316406 14.335938 L 195.585938 14.335938 L 195.585938 15.449219 Z M 196.933594 13.984375 L 196.933594 18.027344 L 197.578125 18.027344 L 197.578125 13.984375 Z M 198.164062 19.824219 C 198.710938 19.824219 198.984375 19.492188 198.984375 18.847656 L 198.984375 13.476562 L 198.28125 13.476562 L 198.28125 18.671875 C 198.28125 18.984375 198.164062 19.160156 197.910156 19.160156 C 197.636719 19.160156 197.34375 19.140625 197.050781 19.101562 L 197.207031 19.824219 Z M 198.164062 19.824219 "/>
<path style=" stroke:none;fill-rule:nonzero;fill:rgb(0%,0%,0%);fill-opacity:1;" d="M 208.671875 13.476562 L 206.035156 13.476562 L 206.035156 9.550781 L 205.214844 9.550781 L 205.214844 13.476562 L 202.578125 13.476562 L 202.578125 10.410156 L 201.757812 10.410156 L 201.757812 14.257812 L 205.214844 14.257812 L 205.214844 18.398438 L 202.03125 18.398438 L 202.03125 15.3125 L 201.210938 15.3125 L 201.210938 19.804688 L 202.03125 19.804688 L 202.03125 19.160156 L 209.21875 19.160156 L 209.21875 19.804688 L 210.039062 19.804688 L 210.039062 15.3125 L 209.21875 15.3125 L 209.21875 18.398438 L 206.035156 18.398438 L 206.035156 14.257812 L 209.492188 14.257812 L 209.492188 10.410156 L 208.671875 10.410156 Z M 208.671875 13.476562 "/>
<path style=" stroke:none;fill-rule:nonzero;fill:rgb(0%,0%,0%);fill-opacity:1;" d="M 26.328125 12.695312 L 26.328125 14.355469 L 25.214844 14.355469 C 25.488281 13.632812 25.761719 12.8125 25.996094 11.894531 L 28.164062 11.894531 L 28.164062 11.132812 L 26.191406 11.132812 C 26.289062 10.683594 26.386719 10.195312 26.503906 9.6875 L 25.761719 9.53125 C 25.644531 10.078125 25.546875 10.625 25.429688 11.132812 L 24.316406 11.132812 L 24.316406 11.894531 L 25.253906 11.894531 C 25 12.890625 24.726562 13.75 24.394531 14.414062 L 24.570312 15.097656 L 26.328125 15.097656 L 26.328125 16.777344 C 25.664062 16.894531 24.980469 17.011719 24.238281 17.089844 L 24.335938 17.890625 C 25.019531 17.773438 25.683594 17.675781 26.328125 17.539062 L 26.328125 19.882812 L 27.070312 19.882812 L 27.070312 17.382812 L 28.144531 17.109375 L 28.144531 16.347656 C 27.8125 16.425781 27.460938 16.523438 27.070312 16.621094 L 27.070312 15.097656 L 28.105469 15.097656 L 28.105469 14.355469 L 27.070312 14.355469 L 27.070312 12.695312 Z M 29.648438 12.109375 L 29.648438 12.773438 L 32.871094 12.773438 L 32.871094 12.109375 L 29.648438 12.109375 C 30.214844 11.5625 30.761719 10.957031 31.289062 10.3125 C 32.148438 11.40625 33.105469 12.34375 34.160156 13.105469 L 34.589844 12.480469 C 33.574219 11.757812 32.578125 10.800781 31.582031 9.589844 L 31.015625 9.589844 C 30.097656 10.703125 29.0625 11.699219 27.910156 12.539062 L 28.359375 13.222656 C 28.789062 12.871094 29.21875 12.5 29.648438 12.109375 Z M 30.429688 19.804688 C 30.976562 19.804688 31.269531 19.511719 31.269531 18.925781 L 31.269531 13.671875 L 28.613281 13.671875 L 28.613281 19.882812 L 29.316406 19.882812 L 29.316406 17.773438 L 30.585938 17.773438 L 30.585938 18.789062 C 30.585938 19.023438 30.449219 19.160156 30.214844 19.160156 L 29.707031 19.140625 L 29.882812 19.804688 Z M 29.316406 17.148438 L 29.316406 16.074219 L 30.585938 16.074219 L 30.585938 17.148438 Z M 29.316406 15.449219 L 29.316406 14.335938 L 30.585938 14.335938 L 30.585938 15.449219 Z M 31.933594 13.984375 L 31.933594 18.027344 L 32.578125 18.027344 L 32.578125 13.984375 Z M 33.164062 19.824219 C 33.710938 19.824219 33.984375 19.492188 33.984375 18.847656 L 33.984375 13.476562 L 33.28125 13.476562 L 33.28125 18.671875 C 33.28125 18.984375 33.164062 19.160156 32.910156 19.160156 C 32.636719 19.160156 32.34375 19.140625 32.050781 19.101562 L 32.207031 19.824219 Z M 33.164062 19.824219 "/>
<path style=" stroke:none;fill-rule:nonzero;fill:rgb(0%,0%,0%);fill-opacity:1;" d="M 40.136719 12.167969 C 39.414062 15.15625 37.851562 17.460938 35.429688 19.023438 L 35.917969 19.726562 C 38.28125 18.183594 39.84375 15.976562 40.585938 13.105469 C 40.644531 13.242188 40.683594 13.398438 40.761719 13.59375 C 41.914062 16.5625 43.398438 18.613281 45.234375 19.707031 L 45.742188 19.0625 C 43.945312 17.949219 42.539062 16.035156 41.484375 13.359375 C 40.800781 11.523438 39.941406 10.253906 38.945312 9.550781 L 38.28125 9.980469 C 38.984375 10.507812 39.609375 11.230469 40.136719 12.167969 Z M 40.136719 12.167969 "/>
</g>
</svg>
